<?xml version="1.0" encoding="utf-8"?>
<!-- Generator: Adobe Illustrator 17.0.0, SVG Export Plug-In . SVG Version: 6.00 Build 0)  -->
<!DOCTYPE svg PUBLIC "-//W3C//DTD SVG 1.1//EN" "http://www.w3.org/Graphics/SVG/1.1/DTD/svg11.dtd">
<svg version="1.1" id="Layer_1" xmlns="http://www.w3.org/2000/svg" xmlns:xlink="http://www.w3.org/1999/xlink" x="0px" y="0px"
	 width="4.414px" height="5.583px" viewBox="0 0 4.414 5.583" enable-background="new 0 0 4.414 5.583" xml:space="preserve">
<path fill="#010101" d="M3.347,2.884L2.823,3.408V0.625C2.823,0.28,2.543,0,2.198,0C1.853,0,1.573,0.28,1.573,0.625v2.763
	L1.055,2.849c-0.241-0.251-0.633-0.251-0.874,0c-0.241,0.251-0.241,0.658,0,0.909L1.75,5.391c0.058,0.06,0.127,0.11,0.205,0.143
	c0.077,0.033,0.158,0.049,0.24,0.048c0.001,0,0.002,0.001,0.003,0.001c0.227,0,0.418-0.128,0.527-0.309l1.506-1.506
	c0.244-0.244,0.244-0.64,0-0.884C3.987,2.64,3.591,2.64,3.347,2.884z"/>
</svg>
