<?xml version="1.0" encoding="utf-8"?>
<!-- Generator: Adobe Illustrator 17.0.0, SVG Export Plug-In . SVG Version: 6.00 Build 0)  -->
<!DOCTYPE svg PUBLIC "-//W3C//DTD SVG 1.1//EN" "http://www.w3.org/Graphics/SVG/1.1/DTD/svg11.dtd">
<svg version="1.1" id="Layer_1" xmlns="http://www.w3.org/2000/svg" xmlns:xlink="http://www.w3.org/1999/xlink" x="0px" y="0px"
	 width="6.077px" height="6.531px" viewBox="0 0 6.077 6.531" enable-background="new 0 0 6.077 6.531" xml:space="preserve">
<path fill="#010101" d="M4.909,4.098c-0.195-0.195-0.512-0.195-0.707,0L3.476,4.825V1.449V0.5c0-0.276-0.224-0.5-0.5-0.5
	s-0.5,0.224-0.5,0.5v0.949v3.376L1.75,4.098c-0.195-0.195-0.512-0.195-0.707,0s-0.195,0.512,0,0.707l1.58,1.58
	c0.001,0.001,0.003,0.001,0.004,0.003c0.018,0.017,0.042,0.026,0.062,0.041c0.031,0.022,0.059,0.048,0.095,0.063
	c0.001,0,0.001,0.001,0.002,0.001c0.122,0.051,0.26,0.051,0.382,0c0.001,0,0.001-0.001,0.002-0.001
	c0.036-0.015,0.065-0.041,0.097-0.064C3.286,6.413,3.311,6.404,3.33,6.385l1.58-1.58C5.105,4.61,5.105,4.294,4.909,4.098z"/>
</svg>
