<?xml version="1.0" encoding="utf-8"?>
<!-- Generator: Adobe Illustrator 17.0.0, SVG Export Plug-In . SVG Version: 6.00 Build 0)  -->
<!DOCTYPE svg PUBLIC "-//W3C//DTD SVG 1.1//EN" "http://www.w3.org/Graphics/SVG/1.1/DTD/svg11.dtd">
<svg version="1.1" id="Layer_1" xmlns="http://www.w3.org/2000/svg" xmlns:xlink="http://www.w3.org/1999/xlink" x="0px" y="0px"
	 width="11.939px" height="11.939px" viewBox="0 0 11.939 11.939" enable-background="new 0 0 11.939 11.939" xml:space="preserve">
<path d="M5.97,0C2.678,0,0,2.678,0,5.97s2.678,5.97,5.97,5.97s5.97-2.678,5.97-5.97S9.262,0,5.97,0z M5.97,1
	c1.363,0,2.599,0.553,3.497,1.445L1.844,8.736C1.312,7.944,1,6.993,1,5.97C1,3.229,3.229,1,5.97,1z M5.97,10.939
	c-1.358,0-2.588-0.55-3.485-1.435l7.618-6.287c0.527,0.789,0.837,1.735,0.837,2.753C10.939,8.71,8.71,10.939,5.97,10.939z"/>
</svg>
