<?xml version="1.0" encoding="utf-8"?>
<!-- Generator: Adobe Illustrator 17.0.0, SVG Export Plug-In . SVG Version: 6.00 Build 0)  -->
<!DOCTYPE svg PUBLIC "-//W3C//DTD SVG 1.1//EN" "http://www.w3.org/Graphics/SVG/1.1/DTD/svg11.dtd">
<svg version="1.1" id="Layer_1" xmlns="http://www.w3.org/2000/svg" xmlns:xlink="http://www.w3.org/1999/xlink" x="0px" y="0px"
	 width="66.653px" height="66.25px" viewBox="0 0 66.653 66.25" enable-background="new 0 0 66.653 66.25" xml:space="preserve">
<g>
	
		<path fill="none" stroke="currentColor" stroke-width="8" stroke-linecap="round" stroke-linejoin="round" stroke-dasharray="12.1248,12.1248" d="
		M18.5,2.5c-8.8,0-16,7.2-16,16v29.25c0,8.8,7.2,16,16,16h29.653c8.8,0,16-7.2,16-16V18.5c0-8.8-7.2-16-16-16H18.5z"/>
</g>
<path fill="none" stroke="currentColor" stroke-width="8" stroke-linecap="round" stroke-linejoin="round" stroke-miterlimit="10" stroke-dasharray="11.771,11.7713" d="
	M17.278,33.864l6.215,7.436c1.764,2.11,4.921,2.38,7.017,0.599l4.454-3.784c2.096-1.781,5.52-4.701,7.609-6.489l20.489-17.541"/>
<g>
	<path fill="none" stroke="currentColor" stroke-width="8" stroke-linecap="round" stroke-linejoin="round" stroke-miterlimit="10" d="
		M17.278,33.788l6.215,7.436c1.764,2.11,4.921,2.38,7.017,0.599l4.454-3.784c2.096-1.781,5.52-4.701,7.609-6.489l20.489-17.541"/>
</g>
</svg>
