<?xml version="1.0" encoding="utf-8"?>
<!-- Generator: Adobe Illustrator 17.0.0, SVG Export Plug-In . SVG Version: 6.00 Build 0)  -->
<!DOCTYPE svg PUBLIC "-//W3C//DTD SVG 1.1//EN" "http://www.w3.org/Graphics/SVG/1.1/DTD/svg11.dtd">
<svg version="1.1" id="Layer_1" xmlns="http://www.w3.org/2000/svg" xmlns:xlink="http://www.w3.org/1999/xlink" x="0px" y="0px"
	 width="12.653px" height="12.653px" viewBox="0 0 12.653 12.653" enable-background="new 0 0 12.653 12.653" xml:space="preserve">
<g>
	<path fill="none" stroke="currentColor" stroke-linecap="round" stroke-linejoin="round" stroke-miterlimit="10" d="M3.927,11.586
		c-1.1,0-2-0.9-2-2V4.621c0-1.1,0.9-2,2-2h4.799c1.1,0,2,0.9,2,2v4.965c0,1.1-0.9,2-2,2H3.927z"/>
</g>
<line fill="none" stroke="currentColor" stroke-linecap="round" stroke-linejoin="round" stroke-miterlimit="10" x1="4.889" y1="2.621" x2="4.889" y2="1.067"/>
<line fill="none" stroke="currentColor" stroke-linecap="round" stroke-linejoin="round" stroke-miterlimit="10" x1="7.73" y1="2.621" x2="7.73" y2="1.067"/>
<line fill="none" stroke="currentColor" stroke-linecap="round" stroke-linejoin="round" stroke-miterlimit="10" x1="1.927" y1="4.964" x2="10.726" y2="4.964"/>
<path fill="currentColor" stroke="none" d="M5.062,6.84c0,0.342-0.228,0.619-0.51,0.619H3.787c-0.282,0-0.51-0.277-0.51-0.619l0,0c0-0.342,0.228-0.619,0.51-0.619
	h0.765C4.834,6.221,5.062,6.498,5.062,6.84L5.062,6.84z"/>
<path fill="currentColor" stroke="none" d="M7.166,6.84c0,0.342-0.228,0.619-0.51,0.619H5.891c-0.282,0-0.51-0.277-0.51-0.619l0,0c0-0.342,0.228-0.619,0.51-0.619
	h0.765C6.937,6.221,7.166,6.498,7.166,6.84L7.166,6.84z"/>
<path fill="currentColor" stroke="none" d="M9.269,6.84c0,0.342-0.228,0.619-0.51,0.619H7.994c-0.282,0-0.51-0.277-0.51-0.619l0,0c0-0.342,0.228-0.619,0.51-0.619
	h0.765C9.041,6.221,9.269,6.498,9.269,6.84L9.269,6.84z"/>
<path fill="currentColor" stroke="none" d="M5.062,8.461c0,0.342-0.228,0.619-0.51,0.619H3.787c-0.282,0-0.51-0.277-0.51-0.619l0,0c0-0.342,0.228-0.619,0.51-0.619
	h0.765C4.834,7.842,5.062,8.119,5.062,8.461L5.062,8.461z"/>
<path fill="currentColor" stroke="none" d="M7.166,8.461c0,0.342-0.228,0.619-0.51,0.619H5.891c-0.282,0-0.51-0.277-0.51-0.619l0,0c0-0.342,0.228-0.619,0.51-0.619
	h0.765C6.937,7.842,7.166,8.119,7.166,8.461L7.166,8.461z"/>
<path fill="currentColor" stroke="none" d="M9.269,8.461c0,0.342-0.228,0.619-0.51,0.619H7.994c-0.282,0-0.51-0.277-0.51-0.619l0,0c0-0.342,0.228-0.619,0.51-0.619
	h0.765C9.041,7.842,9.269,8.119,9.269,8.461L9.269,8.461z"/>
</svg>
