<?xml version="1.0" encoding="utf-8"?>
<!-- Generator: Adobe Illustrator 17.0.0, SVG Export Plug-In . SVG Version: 6.00 Build 0)  -->
<!DOCTYPE svg PUBLIC "-//W3C//DTD SVG 1.1//EN" "http://www.w3.org/Graphics/SVG/1.1/DTD/svg11.dtd">
<svg version="1.1" id="Layer_1" xmlns="http://www.w3.org/2000/svg" xmlns:xlink="http://www.w3.org/1999/xlink" x="0px" y="0px"
	 width="11.792px" height="14.135px" viewBox="0 0 11.792 14.135" enable-background="new 0 0 11.792 14.135" xml:space="preserve">
<g>
	<path fill="none" d="M1,5.281v6.247c0,0.886,0.673,1.607,1.5,1.607h6.792c0.827,0,1.5-0.721,1.5-1.607V5.281H1z M4.104,10.451
		c0,0.276-0.224,0.5-0.5,0.5H2.292c-0.276,0-0.5-0.224-0.5-0.5V9.493c0-0.276,0.224-0.5,0.5-0.5h1.313c0.276,0,0.5,0.224,0.5,0.5
		V10.451z M4.104,7.92c0,0.276-0.224,0.5-0.5,0.5H2.292c-0.276,0-0.5-0.224-0.5-0.5V6.961c0-0.276,0.224-0.5,0.5-0.5h1.313
		c0.276,0,0.5,0.224,0.5,0.5V7.92z M7.052,10.451c0,0.276-0.224,0.5-0.5,0.5H5.24c-0.276,0-0.5-0.224-0.5-0.5V9.493
		c0-0.276,0.224-0.5,0.5-0.5h1.313c0.276,0,0.5,0.224,0.5,0.5V10.451z M7.052,7.92c0,0.276-0.224,0.5-0.5,0.5H5.24
		c-0.276,0-0.5-0.224-0.5-0.5V6.961c0-0.276,0.224-0.5,0.5-0.5h1.313c0.276,0,0.5,0.224,0.5,0.5V7.92z M10,10.451
		c0,0.276-0.224,0.5-0.5,0.5H8.188c-0.276,0-0.5-0.224-0.5-0.5V9.493c0-0.276,0.224-0.5,0.5-0.5H9.5c0.276,0,0.5,0.224,0.5,0.5
		V10.451z M10,7.92c0,0.276-0.224,0.5-0.5,0.5H8.188c-0.276,0-0.5-0.224-0.5-0.5V6.961c0-0.276,0.224-0.5,0.5-0.5H9.5
		c0.276,0,0.5,0.224,0.5,0.5V7.92z"/>
	<path fill="none" d="M10.787,4.281c-0.023-0.865-0.683-1.563-1.496-1.563H2.5c-0.813,0-1.473,0.697-1.496,1.563H10.787z"/>
	<path d="M9.292,1.719H8.333V0.5c0-0.276-0.224-0.5-0.5-0.5c-0.276,0-0.5,0.224-0.5,0.5v1.219H4.271V0.5c0-0.276-0.224-0.5-0.5-0.5
		s-0.5,0.224-0.5,0.5v1.219H2.5c-1.378,0-2.5,1.17-2.5,2.608v7.201c0,1.438,1.122,2.607,2.5,2.607h6.792c1.379,0,2.5-1.17,2.5-2.607
		V4.327C11.792,2.889,10.67,1.719,9.292,1.719z M2.5,2.719h6.792c0.813,0,1.473,0.697,1.496,1.563H1.004
		C1.027,3.416,1.687,2.719,2.5,2.719z M9.292,13.135H2.5c-0.827,0-1.5-0.721-1.5-1.607V5.281h9.792v6.247
		C10.792,12.414,10.119,13.135,9.292,13.135z"/>
	<path d="M3.604,6.461H2.292c-0.276,0-0.5,0.224-0.5,0.5V7.92c0,0.276,0.224,0.5,0.5,0.5h1.313c0.276,0,0.5-0.224,0.5-0.5V6.961
		C4.104,6.685,3.881,6.461,3.604,6.461z"/>
	<path d="M6.552,6.461H5.24c-0.276,0-0.5,0.224-0.5,0.5V7.92c0,0.276,0.224,0.5,0.5,0.5h1.313c0.276,0,0.5-0.224,0.5-0.5V6.961
		C7.052,6.685,6.829,6.461,6.552,6.461z"/>
	<path d="M9.5,6.461H8.188c-0.276,0-0.5,0.224-0.5,0.5V7.92c0,0.276,0.224,0.5,0.5,0.5H9.5c0.276,0,0.5-0.224,0.5-0.5V6.961
		C10,6.685,9.777,6.461,9.5,6.461z"/>
	<path d="M3.604,8.993H2.292c-0.276,0-0.5,0.224-0.5,0.5v0.958c0,0.276,0.224,0.5,0.5,0.5h1.313c0.276,0,0.5-0.224,0.5-0.5V9.493
		C4.104,9.216,3.881,8.993,3.604,8.993z"/>
	<path d="M6.552,8.993H5.24c-0.276,0-0.5,0.224-0.5,0.5v0.958c0,0.276,0.224,0.5,0.5,0.5h1.313c0.276,0,0.5-0.224,0.5-0.5V9.493
		C7.052,9.216,6.829,8.993,6.552,8.993z"/>
	<path d="M9.5,8.993H8.188c-0.276,0-0.5,0.224-0.5,0.5v0.958c0,0.276,0.224,0.5,0.5,0.5H9.5c0.276,0,0.5-0.224,0.5-0.5V9.493
		C10,9.216,9.777,8.993,9.5,8.993z"/>
</g>
</svg>
