<?xml version="1.0" encoding="utf-8"?>
<!-- Generator: Adobe Illustrator 17.0.0, SVG Export Plug-In . SVG Version: 6.00 Build 0)  -->
<!DOCTYPE svg PUBLIC "-//W3C//DTD SVG 1.1//EN" "http://www.w3.org/Graphics/SVG/1.1/DTD/svg11.dtd">
<svg version="1.1" id="Layer_1" xmlns="http://www.w3.org/2000/svg" xmlns:xlink="http://www.w3.org/1999/xlink" x="0px" y="0px"
	 width="11.265px" height="12.491px" viewBox="0 0 11.265 12.491" enable-background="new 0 0 11.265 12.491" xml:space="preserve">
<line fill="none" stroke="currentColor" stroke-linecap="round" stroke-linejoin="round" stroke-miterlimit="10" x1="3.958" y1="2.054" x2="3.958" y2="0.5"/>
<line fill="none" stroke="currentColor" stroke-linecap="round" stroke-linejoin="round" stroke-miterlimit="10" x1="7.308" y1="2.054" x2="7.308" y2="0.5"/>
<line fill="none" stroke="currentColor" stroke-linecap="round" stroke-linejoin="round" stroke-miterlimit="10" x1="0.731" y1="4.546" x2="10.534" y2="4.546"/>
<path fill="none" stroke="currentColor" stroke-linecap="round" stroke-linejoin="round" stroke-miterlimit="10" d="M10.765,10.991
	c0,0.552-0.423,1-0.945,1H1.445c-0.522,0-0.945-0.448-0.945-1V3.091c0-0.552,0.423-1,0.945-1h8.376c0.522,0,0.945,0.448,0.945,1
	V10.991z"/>
<polygon fill="none" stroke="currentColor" stroke-linecap="round" stroke-linejoin="round" stroke-miterlimit="10" points="9.016,8.19 
	9.016,8.19 2.266,8.19 2.266,8.19 2.266,6.273 2.266,6.273 9.016,6.273 9.016,6.273 "/>
</svg>
