<?xml version="1.0" encoding="utf-8"?>
<!-- Generator: Adobe Illustrator 17.0.0, SVG Export Plug-In . SVG Version: 6.00 Build 0)  -->
<!DOCTYPE svg PUBLIC "-//W3C//DTD SVG 1.1//EN" "http://www.w3.org/Graphics/SVG/1.1/DTD/svg11.dtd">
<svg version="1.1" id="Layer_1" xmlns="http://www.w3.org/2000/svg" xmlns:xlink="http://www.w3.org/1999/xlink" x="0px" y="0px"
	 width="69.717px" height="69.174px" viewBox="0 0 69.717 69.174" enable-background="new 0 0 69.717 69.174" xml:space="preserve">
<path fill="none" stroke="currentColor" stroke-width="8" stroke-linecap="round" stroke-linejoin="round" stroke-miterlimit="10" d="
	M21.434,33.466l6.215,7.436c1.764,2.11,4.921,2.38,7.017,0.599l4.454-3.784c2.096-1.781,5.52-4.701,7.609-6.489l20.489-17.541"/>
<g>
	<g>
		<path fill="none" stroke="currentColor" stroke-width="8" stroke-linecap="round" stroke-linejoin="round" d="M53.935,9.015
			c-1.587-1.205-3.289-2.266-5.087-3.163"/>
		
			<path fill="none" stroke="currentColor" stroke-width="8" stroke-linecap="round" stroke-linejoin="round" stroke-dasharray="12.5919,12.5919" d="
			M36.768,2.573C36.047,2.525,35.32,2.5,34.587,2.5C16.894,2.5,2.5,16.894,2.5,34.587s14.394,32.087,32.087,32.087
			c14.783,0,27.264-10.049,30.969-23.675"/>
		<path fill="none" stroke="currentColor" stroke-width="8" stroke-linecap="round" stroke-linejoin="round" d="M66.598,36.796
			c0.05-0.73,0.075-1.467,0.075-2.209c0-1.28-0.077-2.543-0.225-3.784"/>
	</g>
</g>
</svg>
