<?xml version="1.0" encoding="utf-8"?>
<!-- Generator: Adobe Illustrator 17.0.0, SVG Export Plug-In . SVG Version: 6.00 Build 0)  -->
<!DOCTYPE svg PUBLIC "-//W3C//DTD SVG 1.1//EN" "http://www.w3.org/Graphics/SVG/1.1/DTD/svg11.dtd">
<svg version="1.1" id="Layer_1" xmlns="http://www.w3.org/2000/svg" xmlns:xlink="http://www.w3.org/1999/xlink" x="0px" y="0px"
	 width="72.083px" height="72.083px" viewBox="0 0 72.083 72.083" enable-background="new 0 0 72.083 72.083" xml:space="preserve">
<g>
	<path fill="none" stroke="currentColor" stroke-width="5" stroke-linecap="round" stroke-linejoin="round" stroke-miterlimit="10" d="
		M36.042,15.038v15.003c0,3.3,2.098,7.7,4.662,9.777l4.847,3.926"/>
</g>
<g>
	<path fill="none" stroke="currentColor" stroke-width="5" stroke-linecap="round" stroke-linejoin="round" stroke-miterlimit="10" d="
		M63.915,18.567c3.065,5.083,4.833,11.068,4.833,17.474c0,18.437-14.643,33.383-32.706,33.383S3.335,54.479,3.335,36.042
		S17.978,2.659,36.042,2.659c8.218,0,16.371,5.045,16.371,5.045c2.806,1.736,6.481,1.523,8.167-0.475s3.065-3.632,3.065-3.632"/>
</g>
<g>
	<path fill="none" stroke="currentColor" stroke-width="5" stroke-linecap="round" stroke-linejoin="round" stroke-miterlimit="10" d="
		M62.693,16.686c0.427,0.612,0.835,1.239,1.222,1.881"/>
</g>
</svg>
