<?xml version="1.0" encoding="utf-8"?>
<!-- Generator: Adobe Illustrator 17.0.0, SVG Export Plug-In . SVG Version: 6.00 Build 0)  -->
<!DOCTYPE svg PUBLIC "-//W3C//DTD SVG 1.1//EN" "http://www.w3.org/Graphics/SVG/1.1/DTD/svg11.dtd">
<svg version="1.1" id="Layer_1" xmlns="http://www.w3.org/2000/svg" xmlns:xlink="http://www.w3.org/1999/xlink" x="0px" y="0px"
	 width="66.502px" height="71.987px" viewBox="0 0 66.502 71.987" enable-background="new 0 0 66.502 71.987" xml:space="preserve">
<g>
	<path fill="none" stroke="currentColor" stroke-width="8" stroke-miterlimit="10" d="M47.964,13.713
		c1.463,1.034,3.779,1.651,5.146,1.372c1.367-0.28,3.447-0.388,4.623-0.24c1.176,0.148,3.807,3.159,4.525,4.402
		c0.718,1.243,1.495,3.211,1.726,4.374s-1.77,4.585-2.695,5.628c-0.925,1.043-1.484,3.34-1.243,5.106c0,0,0,0,0,1.639
		c0,1.639,0,1.639,0,1.639c-0.241,1.765,0.319,4.063,1.243,5.106c0.925,1.043,2.058,2.79,2.518,3.882
		c0.46,1.092-0.832,4.876-1.55,6.119c-0.718,1.243-2.034,2.9-2.925,3.682c-0.891,0.782-4.857,0.759-6.223,0.48
		c-1.367-0.28-3.682,0.338-5.146,1.372s-6.095,4.054-6.536,5.376c-0.44,1.321-1.387,3.175-2.103,4.12
		c-0.716,0.945-4.639,1.718-6.074,1.718c-1.435,0-3.528-0.311-4.651-0.692c-1.123-0.381-3.085-3.825-3.526-5.146
		c-0.44-1.321-2.132-3.019-3.76-3.773s-6.555-3.254-7.922-2.974c-1.367,0.28-3.447,0.388-4.623,0.24s-3.807-3.159-4.525-4.402
		c-0.718-1.243-1.495-3.211-1.726-4.374s1.77-4.585,2.695-5.628c0.925-1.043,1.484-3.34,1.243-5.106c0,0,0,0,0-1.639
		c0-1.639,0-1.639,0-1.639c0.241-1.765-0.319-4.063-1.243-5.106s-2.058-2.79-2.518-3.882c-0.46-1.092,0.832-4.876,1.55-6.119
		c0.718-1.243,2.034-2.9,2.925-3.682s4.857-0.759,6.223-0.48s3.682-0.338,5.146-1.372c1.463-1.034,6.095-4.054,6.536-5.376
		c0.44-1.321,1.387-3.175,2.103-4.12S31.816,2.5,33.251,2.5c1.435,0,3.528,0.311,4.651,0.692c1.123,0.381,3.085,3.825,3.526,5.146
		C41.868,9.659,46.5,12.679,47.964,13.713z"/>
</g>
<g>
	<circle fill="currentColor" fill-opacity='1' cx="33.251" cy="35.993" r="13.397"/>
	<circle fill="none" stroke="currentColor" stroke-width="8" stroke-miterlimit="10" cx="33.251" cy="35.993" r="13.397"/>
</g>
</svg>
