<?xml version="1.0" encoding="utf-8"?>
<!-- Generator: Adobe Illustrator 17.0.0, SVG Export Plug-In . SVG Version: 6.00 Build 0)  -->
<!DOCTYPE svg PUBLIC "-//W3C//DTD SVG 1.1//EN" "http://www.w3.org/Graphics/SVG/1.1/DTD/svg11.dtd">
<svg version="1.1" id="Layer_1" xmlns="http://www.w3.org/2000/svg" xmlns:xlink="http://www.w3.org/1999/xlink" x="0px" y="0px"
	 width="10.036px" height="9.977px" viewBox="0 0 10.036 9.977" enable-background="new 0 0 10.036 9.977" xml:space="preserve">
<g>
	<path fill="#010101" d="M4.281,4.826h0.883v0.883c0,0.345,0.28,0.625,0.625,0.625c0.345,0,0.625-0.28,0.625-0.625V4.826h0.883
		c0.345,0,0.625-0.28,0.625-0.625c0-0.345-0.28-0.625-0.625-0.625H6.414V2.693c0-0.345-0.28-0.625-0.625-0.625
		c-0.345,0-0.625,0.28-0.625,0.625v0.883H4.281c-0.345,0-0.625,0.28-0.625,0.625C3.656,4.546,3.936,4.826,4.281,4.826z"/>
	<path fill="#010101" d="M7.994,8.977H1V2.075c0-0.276-0.224-0.5-0.5-0.5S0,1.798,0,2.075v7.402c0,0.276,0.224,0.5,0.5,0.5h7.494
		c0.276,0,0.5-0.224,0.5-0.5S8.271,8.977,7.994,8.977z"/>
	<path fill="#010101" d="M9.536,0H2.042c-0.276,0-0.5,0.224-0.5,0.5v7.402c0,0.276,0.224,0.5,0.5,0.5h7.494
		c0.276,0,0.5-0.224,0.5-0.5V0.5C10.036,0.224,9.813,0,9.536,0z M9.036,7.402H2.542V1h6.494V7.402z"/>
</g>
</svg>
