<?xml version="1.0" encoding="utf-8"?>
<!-- Generator: Adobe Illustrator 17.0.0, SVG Export Plug-In . SVG Version: 6.00 Build 0)  -->
<!DOCTYPE svg PUBLIC "-//W3C//DTD SVG 1.1//EN" "http://www.w3.org/Graphics/SVG/1.1/DTD/svg11.dtd">
<svg version="1.1" id="Layer_1" xmlns="http://www.w3.org/2000/svg" xmlns:xlink="http://www.w3.org/1999/xlink" x="0px" y="0px"
	 width="71.513px" height="64.717px" viewBox="0 0 71.513 64.717" enable-background="new 0 0 71.513 64.717" xml:space="preserve">
<g>
	<path fill="currentColor" fill-opacity='1' d="M5.83,51.55L2.543,27.679c-0.3-2.179,1.021-3.076,2.935-1.992l10.705,6.059
		c1.915,1.084,4.26,0.348,5.212-1.636L33.933,3.99c0.952-1.983,2.516-1.987,3.476-0.007l12.676,26.135
		c0.96,1.979,3.318,2.724,5.241,1.654l10.677-5.943c1.922-1.07,3.26-0.161,2.973,2.02L65.83,51.717"/>
	<path fill="none" stroke="currentColor" stroke-width="8" stroke-linecap="round" stroke-linejoin="round" stroke-miterlimit="10" d="
		M5.83,51.55L2.543,27.679c-0.3-2.179,1.021-3.076,2.935-1.992l10.705,6.059c1.915,1.084,4.26,0.348,5.212-1.636L33.933,3.99
		c0.952-1.983,2.516-1.987,3.476-0.007l12.676,26.135c0.96,1.979,3.318,2.724,5.241,1.654l10.677-5.943
		c1.922-1.07,3.26-0.161,2.973,2.02L65.83,51.717"/>
</g>
<g>
	
		<line fill="none" stroke="currentColor" stroke-width="8" stroke-linecap="round" stroke-linejoin="round" stroke-miterlimit="10" x1="7.497" y1="62.217" x2="64.33" y2="62.217"/>
</g>
</svg>
