<?xml version="1.0" encoding="utf-8"?>
<!-- Generator: Adobe Illustrator 17.0.0, SVG Export Plug-In . SVG Version: 6.00 Build 0)  -->
<!DOCTYPE svg PUBLIC "-//W3C//DTD SVG 1.1//EN" "http://www.w3.org/Graphics/SVG/1.1/DTD/svg11.dtd">
<svg version="1.1" id="Layer_1" xmlns="http://www.w3.org/2000/svg" xmlns:xlink="http://www.w3.org/1999/xlink" x="0px" y="0px"
	 width="10.537px" height="11.268px" viewBox="0 0 10.537 11.268" enable-background="new 0 0 10.537 11.268" xml:space="preserve">
<circle stroke="currentColor" stroke-linecap="round" stroke-linejoin="round" stroke-miterlimit="10" cx="5" cy="6.268" r="4.5"/>
<circle stroke="currentColor" stroke-linecap="round" stroke-linejoin="round" stroke-miterlimit="10" cx="5" cy="6.268" r="2.181"/>
<g>
	<path fill="var(--back-color)" d="M5,7.26c-0.214,0-0.429-0.068-0.611-0.209c-0.437-0.338-0.518-0.966-0.18-1.402l1.332-1.724
		C5.73,3.68,6.023,3.536,6.332,3.536c0,0,0,0,0.001,0l0.81,0C6.87,3.348,6.697,3.027,6.712,2.671
		C6.736,2.119,7.25,1.709,7.753,1.714L9.58,1.792c0.375,0.016,0.708,0.239,0.865,0.579c0.157,0.34,0.111,0.739-0.118,1.035
		L8.966,5.152c-0.189,0.243-0.48,0.385-0.789,0.385H8.176L6.823,5.537L5.791,6.871C5.594,7.126,5.299,7.26,5,7.26z"/>
</g>
<g>
	<path fill="var(--back-color)" d="M5.009,7.268C4.796,7.268,4.581,7.2,4.4,7.06C3.962,6.723,3.881,6.095,4.218,5.657l1.03-1.336L4.904,3.012
		C4.825,2.714,4.889,2.396,5.076,2.15l1.345-1.759c0.23-0.3,0.61-0.443,0.979-0.375c0.371,0.07,0.672,0.343,0.776,0.706l0.495,1.715
		c0.153,0.531-0.153,1.085-0.684,1.238C7.672,3.766,7.345,3.693,7.102,3.507l0.205,0.781c0.079,0.3,0.014,0.619-0.175,0.865
		L5.802,6.878C5.605,7.134,5.309,7.268,5.009,7.268z"/>
</g>
<g>
	<path fill="currentColor" d="M5,6.76c-0.106,0-0.214-0.034-0.305-0.104c-0.219-0.169-0.259-0.482-0.09-0.701l1.332-1.724
		c0.095-0.123,0.241-0.194,0.396-0.194h0l1.6,0.001L8.547,3.25L7.689,3.213c-0.275-0.012-0.49-0.245-0.479-0.521
		C7.222,2.416,7.413,2.19,7.732,2.214l1.827,0.078c0.187,0.008,0.354,0.12,0.433,0.29c0.078,0.17,0.056,0.37-0.06,0.517L8.571,4.845
		c-0.095,0.122-0.24,0.193-0.395,0.193l0,0L6.578,5.036L5.396,6.566C5.298,6.693,5.149,6.76,5,6.76z"/>
</g>
<g>
	<path fill="currentColor" d="M5.009,6.768c-0.106,0-0.214-0.034-0.305-0.104C4.486,6.495,4.446,6.181,4.614,5.962l1.18-1.53L5.387,2.885
		C5.348,2.736,5.38,2.577,5.473,2.454l1.345-1.759c0.114-0.149,0.298-0.224,0.49-0.188C7.494,0.542,7.643,0.678,7.696,0.86
		l0.495,1.715C8.267,2.84,8.115,3.117,7.849,3.194C7.585,3.269,7.307,3.117,7.23,2.852L7.01,2.09L6.417,2.867l0.407,1.548
		c0.04,0.15,0.007,0.31-0.087,0.432l-1.33,1.726C5.307,6.7,5.159,6.768,5.009,6.768z"/>
</g>
</svg>
