<?xml version="1.0" encoding="utf-8"?>
<!-- Generator: Adobe Illustrator 17.0.0, SVG Export Plug-In . SVG Version: 6.00 Build 0)  -->
<!DOCTYPE svg PUBLIC "-//W3C//DTD SVG 1.1//EN" "http://www.w3.org/Graphics/SVG/1.1/DTD/svg11.dtd">
<svg version="1.1" id="Layer_1" xmlns="http://www.w3.org/2000/svg" xmlns:xlink="http://www.w3.org/1999/xlink" x="0px" y="0px"
	 width="72.083px" height="72.083px" viewBox="0 0 72.083 72.083" enable-background="new 0 0 72.083 72.083" xml:space="preserve">
<g>
	<path fill="#010101" d="M17.977,7.538"/>
	<path fill="none" stroke="#000000" stroke-linecap="round" stroke-linejoin="round" stroke-miterlimit="10" d="M17.977,7.538"/>
</g>
<path fill="none" stroke="#000000" stroke-width="5" stroke-linecap="round" stroke-linejoin="round" stroke-miterlimit="10" d="
	M63.31,37.561c0,15.778-12.79,28.568-28.568,28.568S6.175,53.338,6.175,37.561S18.965,8.993,34.743,8.993"/>
<path fill="none" stroke="#000000" stroke-width="5" stroke-linecap="round" stroke-linejoin="round" stroke-miterlimit="10" d="
	M48.589,37.561c0,7.647-6.199,13.846-13.846,13.846s-13.846-6.199-13.846-13.846s6.199-13.846,13.846-13.846"/>
<g>
	<polygon fill="#373837" points="65.908,18.964 54.444,17.134 52.58,5.955 42.807,16.062 44.431,27.487 34.743,37.505 
		41.706,30.379 34.8,37.561 44.456,27.656 44.45,27.617 56.041,28.979 	"/>
	<path d="M34.8,40.06c-0.626,0-1.253-0.234-1.739-0.704c-0.011-0.011-0.023-0.022-0.034-0.033c-0.009-0.009-0.018-0.017-0.027-0.026
		c-0.988-0.96-1.012-2.54-0.054-3.53l8.838-9.139l-1.452-10.213c-0.109-0.764,0.142-1.535,0.678-2.09l9.773-10.107
		c0.656-0.678,1.639-0.928,2.54-0.649c0.901,0.281,1.568,1.045,1.723,1.976l1.568,9.405l9.689,1.547
		c0.924,0.147,1.689,0.799,1.981,1.689s0.063,1.868-0.594,2.535l-9.868,10.015c-0.541,0.55-1.306,0.816-2.073,0.728L45.42,30.248
		l-8.83,9.057C36.1,39.808,35.45,40.06,34.8,40.06z M46.654,25.359l8.464,0.995l5.602-5.686l-6.671-1.065
		c-1.061-0.169-1.895-0.998-2.072-2.058l-1.048-6.286l-5.475,5.663L46.654,25.359z"/>
</g>
</svg>
