<?xml version="1.0" encoding="utf-8"?>
<!-- Generator: Adobe Illustrator 17.0.0, SVG Export Plug-In . SVG Version: 6.00 Build 0)  -->
<!DOCTYPE svg PUBLIC "-//W3C//DTD SVG 1.1//EN" "http://www.w3.org/Graphics/SVG/1.1/DTD/svg11.dtd">
<svg version="1.1" id="Layer_1" xmlns="http://www.w3.org/2000/svg" xmlns:xlink="http://www.w3.org/1999/xlink" x="0px" y="0px"
	 width="64.935px" height="69.459px" viewBox="0 0 64.935 69.459" enable-background="new 0 0 64.935 69.459" xml:space="preserve">
<path fill="none" stroke="currentColor" stroke-width="5" stroke-linecap="round" stroke-linejoin="round" stroke-miterlimit="10" d="
	M32.468,34.73c0,0,8.46-0.071,15.515,7.423l0,0c9.551,9.455,7.984,21.165,7.792,24.807H9.201
	c-0.383-3.642-1.475-15.666,7.632-24.498l0,0C24.775,34.566,32.468,34.73,32.468,34.73z"/>
<line fill="none" stroke="currentColor" stroke-width="5" stroke-linecap="round" stroke-linejoin="round" stroke-miterlimit="10" x1="2.5" y1="66.959" x2="62.435" y2="66.959"/>
<path fill="currentColor" fill-opacity='.2' stroke="currentColor" stroke-width="5" stroke-linecap="round" stroke-linejoin="round" stroke-miterlimit="10" d="
	M32.468,34.729c0,0-8.46,0.071-15.515-7.423l0,0C7.401,17.852,8.969,6.142,9.16,2.5h46.574c0.383,3.642,1.475,15.666-7.632,24.498
	l0,0C40.161,34.893,32.468,34.729,32.468,34.729z"/>
<line fill="none" stroke="currentColor" stroke-width="5" stroke-linecap="round" stroke-linejoin="round" stroke-miterlimit="10" x1="62.435" y1="2.5" x2="2.5" y2="2.5"/>
</svg>
