<?xml version="1.0" encoding="utf-8"?>
<!-- Generator: Adobe Illustrator 17.0.0, SVG Export Plug-In . SVG Version: 6.00 Build 0)  -->
<!DOCTYPE svg PUBLIC "-//W3C//DTD SVG 1.1//EN" "http://www.w3.org/Graphics/SVG/1.1/DTD/svg11.dtd">
<svg version="1.1" id="Layer_1" xmlns="http://www.w3.org/2000/svg" xmlns:xlink="http://www.w3.org/1999/xlink" x="0px" y="0px"
	 width="72.083px" height="72.083px" viewBox="0 0 72.083 72.083" enable-background="new 0 0 72.083 72.083" xml:space="preserve">
<g>
	<path fill="none" stroke="currentColor" stroke-width="5" stroke-linecap="round" stroke-linejoin="round" stroke-miterlimit="10" d="
		M63.042,36.042v25.664c0,3.85-3.15,7-7,7h-40c-3.85,0-7-3.15-7-7V10.378c0-3.85,3.15-7,7-7h21.925"/>
</g>
<g>
	<path fill="currentColor" fill-opacity='1' d="M37.967,3.378v16.416c0,3.85,3.15,7,7,7h11.075c3.85,0,7-3.15,7-7v-9.416c0-3.85-3.15-7-7-7H38.503"/>
	<path fill="none" stroke="currentColor" stroke-width="5" stroke-linecap="round" stroke-linejoin="round" stroke-miterlimit="10" d="
		M37.967,3.378v16.416c0,3.85,3.15,7,7,7h11.075c3.85,0,7-3.15,7-7v-9.416c0-3.85-3.15-7-7-7H38.503"/>
</g>
<line fill="none" stroke="currentColor" stroke-width="5" stroke-linecap="round" stroke-linejoin="round" stroke-miterlimit="10" x1="49.988" y1="40.739" x2="22.096" y2="40.739"/>
<line fill="none" stroke="currentColor" stroke-width="5" stroke-linecap="round" stroke-linejoin="round" stroke-miterlimit="10" x1="49.988" y1="53.997" x2="22.096" y2="53.997"/>
</svg>
