<?xml version="1.0" encoding="utf-8"?>
<!-- Generator: Adobe Illustrator 17.0.0, SVG Export Plug-In . SVG Version: 6.00 Build 0)  -->
<!DOCTYPE svg PUBLIC "-//W3C//DTD SVG 1.1//EN" "http://www.w3.org/Graphics/SVG/1.1/DTD/svg11.dtd">
<svg version="1.1" id="Layer_1" xmlns="http://www.w3.org/2000/svg" xmlns:xlink="http://www.w3.org/1999/xlink" x="0px" y="0px"
	 width="10.957px" height="10.957px" viewBox="0 0 10.957 10.957" enable-background="new 0 0 10.957 10.957" xml:space="preserve">
<path d="M5.995,10.957c-2.419,0-4.366-2.307-4.366-4.217c0-0.877,0.076-1.105,0.367-1.841l0.043-0.108
	c0.5-1.267,0.944-1.808,1.486-1.808c0.144,0,0.356,0.042,0.554,0.243c0.507,0.517,0.56,1.832,0.546,2.571
	C4.621,5.971,4.688,6.138,4.813,6.268c0.152,0.158,0.38,0.248,0.641,0.252l0,0c0.383,0,0.766-0.444,0.768-0.765
	c0.004-0.682-0.28-1.171-0.581-1.689C5.132,3.188,4.555,2.194,5.906,0.642C6.98-0.59,8.142,0.046,8.237,1.743
	C8.285,2.599,8.68,3.168,9.139,3.827c0.516,0.74,1.101,1.58,1.105,2.878C10.25,7.868,9.823,8.94,9.043,9.723
	C8.251,10.518,7.168,10.957,5.995,10.957z M3.458,4.134C3.363,4.29,3.192,4.592,2.968,5.158L2.925,5.266
	C2.669,5.918,2.629,6.017,2.629,6.74c0,1.448,1.554,3.217,3.366,3.217c0.905,0,1.736-0.334,2.34-0.939
	c0.591-0.593,0.914-1.413,0.91-2.309c-0.004-0.986-0.432-1.6-0.926-2.311c-0.477-0.685-1.018-1.461-1.08-2.6
	c-0.028-0.503-0.16-0.768-0.223-0.821C7.012,0.993,6.883,1.042,6.66,1.299C5.779,2.311,6.037,2.756,6.506,3.564
	c0.321,0.554,0.722,1.243,0.716,2.197C7.216,6.666,6.362,7.52,5.462,7.52c-0.553-0.009-1.03-0.207-1.368-0.559
	C3.782,6.639,3.616,6.219,3.625,5.778C3.64,4.958,3.546,4.414,3.458,4.134z"/>
</svg>
