<?xml version="1.0" encoding="utf-8"?>
<!-- Generator: Adobe Illustrator 17.0.0, SVG Export Plug-In . SVG Version: 6.00 Build 0)  -->
<!DOCTYPE svg PUBLIC "-//W3C//DTD SVG 1.1//EN" "http://www.w3.org/Graphics/SVG/1.1/DTD/svg11.dtd">
<svg version="1.1" id="Layer_1" xmlns="http://www.w3.org/2000/svg" xmlns:xlink="http://www.w3.org/1999/xlink" x="0px" y="0px"
	 width="72.72px" height="69.75px" viewBox="0 0 72.72 69.75" enable-background="new 0 0 72.72 69.75" xml:space="preserve">
<path fill="none" stroke="currentColor" stroke-width="6" stroke-linecap="round" stroke-linejoin="round" stroke-miterlimit="10" d="
	M2.5,17.096"/>
<path fill="currentColor" fill-opacity='1' stroke="currentColor" stroke-width="6" stroke-linecap="round" stroke-linejoin="round" stroke-miterlimit="10" d="
	M2.5,17.096"/>
<g>
	<path fill="none" stroke="currentColor" stroke-width="5" stroke-linecap="round" stroke-linejoin="round" stroke-miterlimit="10" d="
		M2.5,23.499V59.25c0,4.4,3.6,8,8,8h51.72c4.4,0,8-3.6,8-8V24.556c0-4.4-3.6-8-8-8H51.956"/>
</g>
<g>
	<path fill="currentColor" fill-opacity='1' d="M44.309,16.556H6.5c-2.2,0-4-1.8-4-4V6.5c0-2.2,1.8-4,4-4h13.745c2.2,0,5.474,1.033,7.276,2.295
		L44.309,16.556"/>
	<path fill="none" stroke="currentColor" stroke-width="5" stroke-linecap="round" stroke-linejoin="round" stroke-miterlimit="10" d="
		M44.309,16.556H6.5c-2.2,0-4-1.8-4-4V6.5c0-2.2,1.8-4,4-4h13.745c2.2,0,5.474,1.033,7.276,2.295L44.309,16.556"/>
</g>
</svg>
