<?xml version="1.0" encoding="utf-8"?>
<!-- Generator: Adobe Illustrator 17.0.0, SVG Export Plug-In . SVG Version: 6.00 Build 0)  -->
<!DOCTYPE svg PUBLIC "-//W3C//DTD SVG 1.1//EN" "http://www.w3.org/Graphics/SVG/1.1/DTD/svg11.dtd">
<svg version="1.1" id="Layer_1" xmlns="http://www.w3.org/2000/svg" xmlns:xlink="http://www.w3.org/1999/xlink" x="0px" y="0px"
	 width="11.118px" height="9.204px" viewBox="0 0 11.118 9.204" enable-background="new 0 0 11.118 9.204" xml:space="preserve">
<g>
	<path d="M10.618,1.752H5.912L4.983,0.238C4.893,0.09,4.731,0,4.557,0H0.5C0.224,0,0,0.224,0,0.5v8.204c0,0.276,0.224,0.5,0.5,0.5
		h10.118c0.276,0,0.5-0.224,0.5-0.5V2.252C11.118,1.976,10.895,1.752,10.618,1.752z M10.118,8.204H1V1h3.277l0.929,1.514
		c0.091,0.148,0.252,0.238,0.426,0.238h4.486V8.204z"/>
	<path fill="#010101" d="M4.934,3.719v0.883H4.051c-0.345,0-0.625,0.28-0.625,0.625c0,0.345,0.28,0.625,0.625,0.625h0.883v0.883
		c0,0.345,0.28,0.625,0.625,0.625c0.345,0,0.625-0.28,0.625-0.625V5.852h0.883c0.345,0,0.625-0.28,0.625-0.625
		c0-0.345-0.28-0.625-0.625-0.625H6.184V3.719c0-0.345-0.28-0.625-0.625-0.625C5.214,3.094,4.934,3.374,4.934,3.719z"/>
</g>
</svg>
