<?xml version="1.0" encoding="utf-8"?>
<!-- Generator: Adobe Illustrator 17.0.0, SVG Export Plug-In . SVG Version: 6.00 Build 0)  -->
<!DOCTYPE svg PUBLIC "-//W3C//DTD SVG 1.1//EN" "http://www.w3.org/Graphics/SVG/1.1/DTD/svg11.dtd">
<svg version="1.1" id="Layer_1" xmlns="http://www.w3.org/2000/svg" xmlns:xlink="http://www.w3.org/1999/xlink" x="0px" y="0px"
	 width="9.62px" height="9.53px" viewBox="0 0 9.62 9.53" enable-background="new 0 0 9.62 9.53" xml:space="preserve">
<g>
	<path d="M4.81,9.53c0.65,0,1.36-1.16,1.67-2.9H3.14C3.45,8.37,4.16,9.53,4.81,9.53z"/>
	<path d="M3.04,3.7C3,4.04,2.98,4.39,2.98,4.77c0,0.3,0.02,0.58,0.04,0.86H6.6c0.02-0.28,0.04-0.56,0.04-0.86
		c0-0.38-0.02-0.73-0.05-1.07H3.04z"/>
	<path d="M4.81,0c-0.62,0-1.3,1.08-1.62,2.7h3.25C6.11,1.08,5.44,0,4.81,0z"/>
	<path d="M6.65,9.21C7.82,8.73,8.74,7.8,9.23,6.63H7.48C7.32,7.66,7.04,8.55,6.65,9.21z"/>
	<path d="M9.15,2.7c-0.51-1.07-1.4-1.92-2.5-2.38c0.36,0.62,0.63,1.44,0.8,2.38H9.15z"/>
	<path d="M9.49,3.7H7.58c0.03,0.34,0.06,0.7,0.06,1.07c0,0.3-0.03,0.58-0.05,0.86h1.95c0.05-0.28,0.08-0.57,0.08-0.86
		C9.62,4.4,9.57,4.04,9.49,3.7z"/>
	<path d="M0.39,6.63C0.88,7.8,1.8,8.73,2.97,9.21C2.58,8.55,2.3,7.66,2.14,6.63H0.39z"/>
	<path d="M0.47,2.7h1.7c0.17-0.94,0.44-1.76,0.8-2.38C1.87,0.78,0.98,1.63,0.47,2.7z"/>
	<path d="M1.98,4.77c0-0.37,0.03-0.73,0.06-1.07H0.13C0.05,4.04,0,4.4,0,4.77c0,0.29,0.03,0.58,0.09,0.86h1.94
		C2.01,5.35,1.98,5.07,1.98,4.77z"/>
</g>
</svg>
