<?xml version="1.0" encoding="utf-8"?>
<!-- Generator: Adobe Illustrator 17.0.0, SVG Export Plug-In . SVG Version: 6.00 Build 0)  -->
<!DOCTYPE svg PUBLIC "-//W3C//DTD SVG 1.1//EN" "http://www.w3.org/Graphics/SVG/1.1/DTD/svg11.dtd">
<svg version="1.1" id="Layer_1" xmlns="http://www.w3.org/2000/svg" xmlns:xlink="http://www.w3.org/1999/xlink" x="0px" y="0px"
	 width="67.49px" height="67.491px" viewBox="0 0 67.49 67.491" enable-background="new 0 0 67.49 67.491" xml:space="preserve">
<path fill="none" stroke="currentColor" stroke-width="5" stroke-miterlimit="10" d="M61.552,5.937C59.261,3.646,56.501,2.5,53.274,2.5
	H14.217c-3.227,0-5.987,1.146-8.279,3.437C3.646,8.229,2.5,10.989,2.5,14.217v39.056c0,3.227,1.146,5.987,3.437,8.279
	c2.292,2.292,5.052,3.438,8.279,3.438h39.056c3.227,0,5.987-1.146,8.278-3.438c2.292-2.292,3.438-5.052,3.438-8.279V14.217
	C64.99,10.989,63.844,8.229,61.552,5.937z"/>
<path fill="currentColor" d="M48.075,46.284c0,0.485-0.178,0.905-0.531,1.259c-0.355,0.355-0.775,0.532-1.26,0.532h-3.582
	c-0.485,0-0.905-0.177-1.259-0.532c-0.354-0.354-0.532-0.774-0.532-1.259v-8.956H26.58v8.956c0,0.485-0.177,0.905-0.532,1.259
	c-0.355,0.355-0.775,0.532-1.26,0.532h-3.583c-0.485,0-0.905-0.177-1.259-0.532c-0.354-0.354-0.532-0.774-0.532-1.259V21.206
	c0-0.485,0.177-0.905,0.532-1.259c0.355-0.355,0.774-0.532,1.259-0.532h3.582c0.485,0,0.905,0.177,1.26,0.532
	c0.354,0.354,0.532,0.774,0.532,1.259v8.956h14.33v-8.956c0-0.485,0.177-0.905,0.531-1.259c0.355-0.355,0.775-0.532,1.259-0.532
	h3.583c0.485,0,0.905,0.177,1.26,0.532c0.354,0.354,0.531,0.774,0.531,1.259L48.075,46.284L48.075,46.284z"/>
</svg>
