<?xml version="1.0" encoding="utf-8"?>
<!-- Generator: Adobe Illustrator 17.0.0, SVG Export Plug-In . SVG Version: 6.00 Build 0)  -->
<!DOCTYPE svg PUBLIC "-//W3C//DTD SVG 1.1//EN" "http://www.w3.org/Graphics/SVG/1.1/DTD/svg11.dtd">
<svg version="1.1" id="Layer_1" xmlns="http://www.w3.org/2000/svg" xmlns:xlink="http://www.w3.org/1999/xlink" x="0px" y="0px"
	 width="5.58px" height="7.04px" viewBox="0 0 5.58 7.04" enable-background="new 0 0 5.58 7.04" xml:space="preserve">
<path fill="#010101" d="M5.08,0c-0.27,0-0.5,0.22-0.5,0.5v2.52H1V0.5C1,0.22,0.78,0,0.5,0C0.22,0,0,0.22,0,0.5v2.52v1v2.52
	c0,0.28,0.22,0.5,0.5,0.5c0.28,0,0.5-0.22,0.5-0.5V4.02h3.58v2.52c0,0.28,0.23,0.5,0.5,0.5c0.28,0,0.5-0.22,0.5-0.5V4.02v-1V0.5
	C5.58,0.22,5.36,0,5.08,0z"/>
</svg>
