<?xml version="1.0" encoding="utf-8"?>
<!-- Generator: Adobe Illustrator 17.0.0, SVG Export Plug-In . SVG Version: 6.00 Build 0)  -->
<!DOCTYPE svg PUBLIC "-//W3C//DTD SVG 1.1//EN" "http://www.w3.org/Graphics/SVG/1.1/DTD/svg11.dtd">
<svg version="1.1" id="Layer_1" xmlns="http://www.w3.org/2000/svg" xmlns:xlink="http://www.w3.org/1999/xlink" x="0px" y="0px"
	 width="76.875px" height="76.75px" viewBox="0 0 76.875 76.75" enable-background="new 0 0 76.875 76.75" xml:space="preserve">
<g>
	<g>
		<g>
			<path fill="none" stroke="currentColor" stroke-width="5" stroke-linecap="round" stroke-linejoin="round" stroke-miterlimit="10" d="
				M2.5,55.125V68.25c0,3.3,2.7,6,6,6h59.875c3.3,0,6-2.7,6-6V55"/>
		</g>
		<g>
			<path fill="currentColor" fill-opacity='.2' d="M33.875,52.5c2.383,0,6.246,0,8.583,0c2.338,0,6.428-1.595,9.091-3.545l2.152-1.576
				c2.662-1.95,7.541-3.545,10.841-3.545h4.167c3.3,0,5.106-2.548,4.014-5.662L62.195,8.162C61.102,5.048,57.508,2.5,54.208,2.5
				H23.375c-3.3,0-6.927,2.536-8.06,5.635L4.268,38.364C3.135,41.464,4.908,44,8.208,44h6c3.3,0,7.996,1.818,10.436,4.04l0.461,0.42
				C27.545,50.682,31.492,52.5,33.875,52.5z"/>
			<path fill="none" stroke="currentColor" stroke-width="5" stroke-linecap="round" stroke-linejoin="round" stroke-miterlimit="10" d="
				M33.875,52.5c2.383,0,6.246,0,8.583,0c2.338,0,6.428-1.595,9.091-3.545l2.152-1.576c2.662-1.95,7.541-3.545,10.841-3.545h4.167
				c3.3,0,5.106-2.548,4.014-5.662L62.195,8.162C61.102,5.048,57.508,2.5,54.208,2.5H23.375c-3.3,0-6.927,2.536-8.06,5.635
				L4.268,38.364C3.135,41.464,4.908,44,8.208,44h6c3.3,0,7.996,1.818,10.436,4.04l0.461,0.42
				C27.545,50.682,31.492,52.5,33.875,52.5z"/>
		</g>
	</g>
</g>
</svg>
