<?xml version="1.0" encoding="utf-8"?>
<!-- Generator: Adobe Illustrator 17.0.0, SVG Export Plug-In . SVG Version: 6.00 Build 0)  -->
<!DOCTYPE svg PUBLIC "-//W3C//DTD SVG 1.1//EN" "http://www.w3.org/Graphics/SVG/1.1/DTD/svg11.dtd">
<svg version="1.1" id="Layer_1" xmlns="http://www.w3.org/2000/svg" xmlns:xlink="http://www.w3.org/1999/xlink" x="0px" y="0px"
	 width="76.875px" height="76.75px" viewBox="0 0 76.875 76.75" enable-background="new 0 0 76.875 76.75" xml:space="preserve">
<g>
	<g>
		<path fill="none" stroke="currentColor" stroke-width="5" stroke-linecap="round" stroke-linejoin="round" stroke-miterlimit="10" d="
			M2.5,55.125V70.25c0,2.2,1.8,4,4,4h63.875c2.2,0,4-1.8,4-4V55"/>
	</g>
	<g>
		<path fill="currentColor" fill-opacity='.2' d="M34.208,52.5c2.2,0,5.8,0,8,0h0.5c2.2,0,5.452-1.064,7.227-2.363l5.379-3.94
			c1.775-1.3,5.027-2.363,7.227-2.363h8.167c2.2,0,3.404-1.699,2.676-3.774L61.532,6.274C60.804,4.199,58.408,2.5,56.208,2.5H21.375
			c-2.2,0-4.618,1.691-5.373,3.757L3.581,40.243C2.826,42.309,4.008,44,6.208,44h10c2.2,0,5.331,1.212,6.957,2.693l3.419,3.113
			c1.627,1.481,4.757,2.693,6.957,2.693H34.208z"/>
		<path fill="none" stroke="currentColor" stroke-width="5" stroke-linecap="round" stroke-linejoin="round" stroke-miterlimit="10" d="
			M34.208,52.5c2.2,0,5.8,0,8,0h0.5c2.2,0,5.452-1.064,7.227-2.363l5.379-3.94c1.775-1.3,5.027-2.363,7.227-2.363h8.167
			c2.2,0,3.404-1.699,2.676-3.774L61.532,6.274C60.804,4.199,58.408,2.5,56.208,2.5H21.375c-2.2,0-4.618,1.691-5.373,3.757
			L3.581,40.243C2.826,42.309,4.008,44,6.208,44h10c2.2,0,5.331,1.212,6.957,2.693l3.419,3.113c1.627,1.481,4.757,2.693,6.957,2.693
			H34.208z"/>
	</g>
</g>
</svg>
