<?xml version="1.0" encoding="utf-8"?>
<!-- Generator: Adobe Illustrator 17.0.0, SVG Export Plug-In . SVG Version: 6.00 Build 0)  -->
<!DOCTYPE svg PUBLIC "-//W3C//DTD SVG 1.1//EN" "http://www.w3.org/Graphics/SVG/1.1/DTD/svg11.dtd">
<svg version="1.1" id="Layer_1" xmlns="http://www.w3.org/2000/svg" xmlns:xlink="http://www.w3.org/1999/xlink" x="0px" y="0px"
	 width="13.953px" height="10.505px" viewBox="0 0 13.953 10.505" enable-background="new 0 0 13.953 10.505" xml:space="preserve">
<g>
	<path fill="none" stroke="currentColor" stroke-linecap="round" stroke-linejoin="round" stroke-miterlimit="10" d="M6.977,0.5h2.505
		c0.55,0,1.248,0.375,1.551,0.834l1.87,2.83c0.303,0.459,0.551,1.284,0.551,1.834v3.007c0,0.55-0.45,1-1,1H6.977"/>
</g>
<g>
	<path fill="none" stroke="currentColor" stroke-linecap="round" stroke-linejoin="round" stroke-miterlimit="10" d="M6.977,6.846
		c0,0,0.222,0,0.494,0c0.272,0,0.767-0.357,1.101-0.794l0.177-0.232c0.334-0.437,1.057-0.797,1.607-0.801l2.926-0.019"/>
</g>
<g>
	<g>
		<path fill="none" stroke="currentColor" stroke-linecap="round" stroke-linejoin="round" stroke-miterlimit="10" d="M6.977,0.5H4.472
			c-0.55,0-1.248,0.375-1.551,0.834l-1.87,2.83C0.748,4.623,0.5,5.448,0.5,5.998v3.007c0,0.55,0.45,1,1,1h5.477"/>
	</g>
	<g>
		<path fill="none" stroke="currentColor" stroke-linecap="round" stroke-linejoin="round" stroke-miterlimit="10" d="M6.977,6.846
			c0,0-0.222,0-0.494,0c-0.272,0-0.767-0.357-1.101-0.794L5.204,5.819C4.87,5.383,4.147,5.022,3.597,5.019L0.67,4.999"/>
	</g>
</g>
</svg>
