<?xml version="1.0" encoding="utf-8"?>
<!-- Generator: Adobe Illustrator 17.0.0, SVG Export Plug-In . SVG Version: 6.00 Build 0)  -->
<!DOCTYPE svg PUBLIC "-//W3C//DTD SVG 1.1//EN" "http://www.w3.org/Graphics/SVG/1.1/DTD/svg11.dtd">
<svg version="1.1" id="Layer_1" xmlns="http://www.w3.org/2000/svg" xmlns:xlink="http://www.w3.org/1999/xlink" x="0px" y="0px"
	 width="71.278px" height="70.888px" viewBox="0 0 71.278 70.888" enable-background="new 0 0 71.278 70.888" xml:space="preserve">
<g>
	<path fill="currentColor" fill-opacity='.4' stroke-width="5" stroke-miterlimit="10" d="M2.5,8.5c0-3.3,2.7-6,6-6h43.287c3.3,0,6,2.7,6,6
		v53.888c0,3.3-2.7,6-6,6H8.5c-3.3,0-6-2.7-6-6V8.5z"/>
</g>
<g>
	<path fill="none" stroke="currentColor" stroke-width="5" stroke-linecap="round" stroke-linejoin="round" stroke-miterlimit="10" d="
		M17.207,37.966l5.14,5.152c1.165,1.168,3.101,1.197,4.301,0.065l17.017-16.06"/>
</g>
<g>
	<path fill="currentColor" d="M68.278,13.664h-1.26h-6.886h-3.615c-0.005,0-0.01,0.004-0.01,0.01v9.405c0,0.005,0.005,0.01,0.01,0.01
		h3.615h6.886h1.26c1.65,0,3-1.35,3-3v-3.425C71.278,15.014,69.928,13.664,68.278,13.664z"/>
	<path fill="currentColor" d="M68.278,30.827h-1.26h-6.886h-3.615c-0.005,0-0.01,0.005-0.01,0.01v9.405c0,0.005,0.005,0.01,0.01,0.01
		h3.615h6.886h1.26c1.65,0,3-1.35,3-3v-3.425C71.278,32.177,69.928,30.827,68.278,30.827z"/>
	<path fill="currentColor" d="M68.278,47.989h-1.26h-6.886h-3.615c-0.005,0-0.01,0.005-0.01,0.01v9.405c0,0.005,0.005,0.01,0.01,0.01
		h3.615h6.886h1.26c1.65,0,3-1.35,3-3v-3.425C71.278,49.339,69.928,47.989,68.278,47.989z"/>
</g>
</svg>
