<?xml version="1.0" encoding="utf-8"?>
<!-- Generator: Adobe Illustrator 17.0.0, SVG Export Plug-In . SVG Version: 6.00 Build 0)  -->
<!DOCTYPE svg PUBLIC "-//W3C//DTD SVG 1.1//EN" "http://www.w3.org/Graphics/SVG/1.1/DTD/svg11.dtd">
<svg version="1.1" id="Layer_1" xmlns="http://www.w3.org/2000/svg" xmlns:xlink="http://www.w3.org/1999/xlink" x="0px" y="0px"
	 width="73.386px" height="72.333px" viewBox="0 0 73.386 72.333" enable-background="new 0 0 73.386 72.333" xml:space="preserve">
<g>
	<path fill="none" stroke="currentColor" stroke-width="5" stroke-miterlimit="10" d="M7.187,9.777c0-3.3,2.7-6,6-6h44.724
		c3.3,0,6,2.7,6,6v47.35c0,3.3-2.7,6-6,6H13.187c-3.3,0-6-2.7-6-6V9.777z"/>
</g>
<g>
	<path fill="currentColor" d="M7.284,12.991c0.002-3.3,2.675-5.611,5.941-5.135l36.152,5.268c3.266,0.476,5.936,3.565,5.934,6.865
		l-0.025,44.923c-0.002,3.3-2.675,5.611-5.941,5.135l-36.152-5.268c-3.266-0.476-5.936-3.565-5.934-6.865L7.284,12.991z"/>
	<path fill="none" stroke="currentColor" stroke-width="5" stroke-miterlimit="10" d="M7.284,12.991c0.002-3.3,2.675-5.611,5.941-5.135
		l36.152,5.268c3.266,0.476,5.936,3.565,5.934,6.865l-0.025,44.923c-0.002,3.3-2.675,5.611-5.941,5.135l-36.152-5.268
		c-3.266-0.476-5.936-3.565-5.934-6.865L7.284,12.991z"/>
</g>
<g>
	<path fill="none" stroke="white" stroke-width="5" stroke-linecap="round" stroke-linejoin="round" stroke-miterlimit="10" d="
		M17.758,40.377l5.54,5.552c1.165,1.168,3.101,1.197,4.301,0.065l18.073-17.057"/>
</g>
</svg>
