<?xml version="1.0" encoding="utf-8"?>
<!-- Generator: Adobe Illustrator 17.0.0, SVG Export Plug-In . SVG Version: 6.00 Build 0)  -->
<!DOCTYPE svg PUBLIC "-//W3C//DTD SVG 1.1//EN" "http://www.w3.org/Graphics/SVG/1.1/DTD/svg11.dtd">
<svg version="1.1" id="Layer_1" xmlns="http://www.w3.org/2000/svg" xmlns:xlink="http://www.w3.org/1999/xlink" x="0px" y="0px"
	 width="71.333px" height="72.13px" viewBox="0 0 71.333 72.13" enable-background="new 0 0 71.333 72.13" xml:space="preserve">
<circle fill="currentColor" cx="26.793" cy="45.337" r="26.793"/>
<path fill="none" id='LOGGED-LIST-PATH' stroke="#FFFFFF" stroke-width="5" stroke-linecap="round" stroke-linejoin="round" stroke-miterlimit="10" d="
	M13.96,47.139l4.904,5.867c1.391,1.665,3.883,1.877,5.536,0.473l3.514-2.986c1.653-1.405,4.355-3.709,6.003-5.12l7.964-6.975"/>
<path fill="none" stroke="currentColor" stroke-width="5" stroke-linecap="round" stroke-linejoin="round" stroke-miterlimit="10" d="
	M21.069,13.79c3.35-1.438,7.041-2.235,10.918-2.235c15.295,0,27.695,12.399,27.695,27.695c0,2.333-0.288,4.599-0.832,6.763"/>
<path fill="none" stroke="currentColor" stroke-width="5" stroke-linecap="round" stroke-linejoin="round" stroke-miterlimit="10" d="
	M30.221,4.735C33.571,3.297,37.261,2.5,41.138,2.5c15.295,0,27.695,12.399,27.695,27.695c0,2.333-0.288,4.599-0.832,6.763"/>
</svg>
