<?xml version="1.0" encoding="utf-8"?>
<!-- Generator: Adobe Illustrator 17.0.0, SVG Export Plug-In . SVG Version: 6.00 Build 0)  -->
<!DOCTYPE svg PUBLIC "-//W3C//DTD SVG 1.1//EN" "http://www.w3.org/Graphics/SVG/1.1/DTD/svg11.dtd">
<svg version="1.1" id="Layer_1" xmlns="http://www.w3.org/2000/svg" xmlns:xlink="http://www.w3.org/1999/xlink" x="0px" y="0px"
	 width="9.942px" height="9.942px" viewBox="0 0 9.942 9.942" enable-background="new 0 0 9.942 9.942" xml:space="preserve">
<g>
	<path fill="none" stroke="currentColor" stroke-linecap="round" stroke-linejoin="round" stroke-miterlimit="10" d="M7.113,0.792
		c0.389-0.389,1.025-0.389,1.414,0L9.15,1.415c0.389,0.389,0.389,1.025,0,1.414L2.829,9.15c-0.389,0.389-1.025,0.389-1.414,0
		L0.792,8.527c-0.389-0.389-0.389-1.025,0-1.414L7.113,0.792z"/>
</g>
<line fill="none" stroke="currentColor" stroke-linecap="round" stroke-linejoin="round" stroke-miterlimit="10" x1="5.382" y1="2.523" x2="7.414" y2="4.565"/>
<polygon points="5.382,0.981 4.916,1.264 4.676,1.754 4.393,1.288 3.903,1.048 4.369,0.765 4.609,0.275 4.892,0.741 "/>
<polygon points="7.942,7.339 7.508,7.603 7.285,8.058 7.022,7.625 6.567,7.402 7,7.139 7.223,6.683 7.486,7.117 "/>
<polygon points="2.69,2.651 1.869,3.15 1.446,4.013 0.948,3.192 0.085,2.77 0.906,2.271 1.328,1.408 1.827,2.229 "/>
</svg>
