<?xml version="1.0" encoding="utf-8"?>
<!-- Generator: Adobe Illustrator 17.0.0, SVG Export Plug-In . SVG Version: 6.00 Build 0)  -->
<!DOCTYPE svg PUBLIC "-//W3C//DTD SVG 1.1//EN" "http://www.w3.org/Graphics/SVG/1.1/DTD/svg11.dtd">
<svg version="1.1" id="Layer_1" xmlns="http://www.w3.org/2000/svg" xmlns:xlink="http://www.w3.org/1999/xlink" x="0px" y="0px"
	 width="9.921px" height="7.666px" viewBox="0 0 9.921 7.666" enable-background="new 0 0 9.921 7.666" xml:space="preserve">
<g>
	<path fill="#010101" d="M0.5,1h8.921c0.276,0,0.5-0.224,0.5-0.5c0-0.276-0.224-0.5-0.5-0.5H0.5C0.224,0,0,0.224,0,0.5
		C0,0.776,0.224,1,0.5,1z"/>
	<path fill="#010101" d="M9.421,3.333H0.5c-0.276,0-0.5,0.224-0.5,0.5c0,0.276,0.224,0.5,0.5,0.5h8.921c0.276,0,0.5-0.224,0.5-0.5
		C9.921,3.557,9.697,3.333,9.421,3.333z"/>
	<path fill="#010101" d="M9.421,6.666H0.5c-0.276,0-0.5,0.224-0.5,0.5c0,0.276,0.224,0.5,0.5,0.5h8.921c0.276,0,0.5-0.224,0.5-0.5
		C9.921,6.89,9.697,6.666,9.421,6.666z"/>
</g>
</svg>
