<?xml version="1.0" encoding="utf-8"?>
<!-- Generator: Adobe Illustrator 17.0.0, SVG Export Plug-In . SVG Version: 6.00 Build 0)  -->
<!DOCTYPE svg PUBLIC "-//W3C//DTD SVG 1.1//EN" "http://www.w3.org/Graphics/SVG/1.1/DTD/svg11.dtd">
<svg version="1.1" id="Layer_1" xmlns="http://www.w3.org/2000/svg" xmlns:xlink="http://www.w3.org/1999/xlink" x="0px" y="0px"
	 width="71.935px" height="69.459px" viewBox="0 0 71.935 69.459" enable-background="new 0 0 71.935 69.459" xml:space="preserve">
<g>
	<path fill="none" stroke="currentColor" stroke-width="8" stroke-linecap="round" stroke-linejoin="round" stroke-miterlimit="10" d="
		M3.616,20.432c0-2.2,1.559-3.1,3.464-2l23.728,13.699c1.905,1.1,1.905,2.9,0,4L7.08,49.831c-1.905,1.1-3.464,0.2-3.464-2V20.432z"
		/>
</g>
<g>
	<path fill="currentColor" fill-opacity='1' d="M39.663,20.432c0-2.2,1.559-3.1,3.464-2l23.728,13.699c1.905,1.1,1.905,2.9,0,4L43.127,49.831
		c-1.905,1.1-3.464,0.2-3.464-2V20.432z"/>
	<path fill="none" stroke="currentColor" stroke-width="8" stroke-linecap="round" stroke-linejoin="round" stroke-miterlimit="10" d="
		M39.663,20.432c0-2.2,1.559-3.1,3.464-2l23.728,13.699c1.905,1.1,1.905,2.9,0,4L43.127,49.831c-1.905,1.1-3.464,0.2-3.464-2V20.432
		z"/>
</g>
</svg>
