<?xml version="1.0" encoding="utf-8"?>
<!-- Generator: Adobe Illustrator 17.0.0, SVG Export Plug-In . SVG Version: 6.00 Build 0)  -->
<!DOCTYPE svg PUBLIC "-//W3C//DTD SVG 1.1//EN" "http://www.w3.org/Graphics/SVG/1.1/DTD/svg11.dtd">
<svg version="1.1" id="Layer_1" xmlns="http://www.w3.org/2000/svg" xmlns:xlink="http://www.w3.org/1999/xlink" x="0px" y="0px"
	 width="11.402px" height="11.288px" viewBox="0 0 11.402 11.288" enable-background="new 0 0 11.402 11.288" xml:space="preserve">
<g>
	<path fill="none" stroke="currentColor" stroke-miterlimit="10" d="M1.496,0.531C0.946,0.533,0.498,0.985,0.5,1.535l0.031,8.257
		c0.002,0.55,0.454,0.998,1.004,0.996l6.192-0.023c0.55-0.002,1.341-0.297,1.758-0.656l0.664-0.571
		c0.417-0.359,0.756-1.102,0.754-1.652l-0.024-6.389c-0.002-0.55-0.454-0.998-1.004-0.996L1.496,0.531z"/>
</g>
<polyline fill="none" stroke="currentColor" stroke-linejoin="round" stroke-miterlimit="10" points="8.204,10.764 8.194,8.114 
	10.903,8.104 "/>
<line fill="none" stroke="currentColor" stroke-linecap="round" stroke-linejoin="round" stroke-miterlimit="10" x1="3.132" y1="2.852" x2="8.256" y2="2.833"/>
<line fill="none" stroke="currentColor" stroke-linecap="round" stroke-linejoin="round" stroke-miterlimit="10" x1="3.14" y1="4.839" x2="8.264" y2="4.82"/>
<line fill="none" stroke="currentColor" stroke-linecap="round" stroke-linejoin="round" stroke-miterlimit="10" x1="3.147" y1="6.826" x2="8.271" y2="6.806"/>
</svg>
