<?xml version="1.0" encoding="utf-8"?>
<!-- Generator: Adobe Illustrator 17.0.0, SVG Export Plug-In . SVG Version: 6.00 Build 0)  -->
<!DOCTYPE svg PUBLIC "-//W3C//DTD SVG 1.1//EN" "http://www.w3.org/Graphics/SVG/1.1/DTD/svg11.dtd">
<svg version="1.1" id="Layer_1" xmlns="http://www.w3.org/2000/svg" xmlns:xlink="http://www.w3.org/1999/xlink" x="0px" y="0px"
	 width="7.315px" height="6.312px" viewBox="0 0 7.315 6.312" enable-background="new 0 0 7.315 6.312" xml:space="preserve">
<g>
	<path fill="#010101" d="M5.534,3.408c0.033-0.077,0.049-0.158,0.048-0.24c0-0.001,0.001-0.002,0.001-0.003
		c0-0.227-0.128-0.418-0.309-0.527L3.768,1.132c-0.244-0.244-0.64-0.244-0.884,0c-0.244,0.244-0.244,0.64,0,0.884L3.408,2.54H0.625
		C0.28,2.54,0,2.82,0,3.165C0,3.51,0.28,3.79,0.625,3.79h2.763L2.849,4.308c-0.251,0.241-0.251,0.633,0,0.874
		c0.251,0.241,0.658,0.241,0.909,0l1.633-1.569C5.451,3.555,5.501,3.486,5.534,3.408z"/>
	<path fill="#010101" d="M5.263,0H4.949C4.703,0.032,4.513,0.244,4.513,0.498c0,0.001,0,0.001,0,0.002c0,0.001,0,0.001,0,0.002
		c0,0.165,0.082,0.31,0.206,0.401c0.005,0.004,0.009,0.008,0.015,0.012c0.006,0.004,0.013,0.007,0.02,0.011
		C4.83,0.972,4.918,1,5.013,1h0.25c0.58,0,1.052,0.472,1.052,1.05v2.21c0,0.58-0.472,1.052-1.052,1.052h-0.23
		c-0.022,0-0.042,0.002-0.064,0.004c-0.248,0.032-0.44,0.244-0.44,0.496c0,0.278,0.226,0.5,0.504,0.5h0.23
		c1.132,0,2.052-0.92,2.052-2.052V2.05C7.315,0.92,6.395,0,5.263,0z"/>
</g>
</svg>
