<?xml version="1.0" encoding="utf-8"?>
<!-- Generator: Adobe Illustrator 17.0.0, SVG Export Plug-In . SVG Version: 6.00 Build 0)  -->
<!DOCTYPE svg PUBLIC "-//W3C//DTD SVG 1.1//EN" "http://www.w3.org/Graphics/SVG/1.1/DTD/svg11.dtd">
<svg version="1.1" id="Layer_1" xmlns="http://www.w3.org/2000/svg" xmlns:xlink="http://www.w3.org/1999/xlink" x="0px" y="0px"
	 width="8.523px" height="8.507px" viewBox="0 0 8.523 8.507" enable-background="new 0 0 8.523 8.507" xml:space="preserve">
<path d="M8.377,2.538L5.979,0.141c-0.188-0.188-0.52-0.188-0.707,0L4.111,1.302c0,0,0,0,0,0l0,0L0.146,5.267
	C0.053,5.361,0,5.488,0,5.621v2.386c0,0.276,0.224,0.5,0.5,0.5h2.408c0.133,0,0.26-0.053,0.354-0.146l5.115-5.115
	C8.572,3.05,8.572,2.733,8.377,2.538z M5.626,1.201l1.69,1.69L6.861,3.347l-1.69-1.69L5.626,1.201z M2.701,7.507H1V5.828
	l3.464-3.464l1.69,1.69L2.701,7.507z"/>
</svg>
