<?xml version="1.0" encoding="utf-8"?>
<!-- Generator: Adobe Illustrator 17.0.0, SVG Export Plug-In . SVG Version: 6.00 Build 0)  -->
<!DOCTYPE svg PUBLIC "-//W3C//DTD SVG 1.1//EN" "http://www.w3.org/Graphics/SVG/1.1/DTD/svg11.dtd">
<svg version="1.1" id="Layer_1" xmlns="http://www.w3.org/2000/svg" xmlns:xlink="http://www.w3.org/1999/xlink" x="0px" y="0px"
	 width="72.083px" height="72.083px" viewBox="0 0 72.083 72.083" enable-background="new 0 0 72.083 72.083" xml:space="preserve">
<g>
	<path fill="#373837" d="M46.518,31.19c0.472,2.709-1.146,3.903-3.595,2.652l-2.315-1.182c-2.449-1.25-6.442-1.221-8.873,0.065
		l-2.297,1.215c-2.431,1.286-4.066,0.116-3.634-2.6l0.409-2.567c0.432-2.716-0.829-6.504-2.803-8.419l-1.866-1.809
		c-1.974-1.914-1.367-3.831,1.35-4.259l2.567-0.405c2.716-0.428,5.93-2.799,7.14-5.268l1.144-2.334
		c1.211-2.469,3.221-2.484,4.468-0.033l1.178,2.317c1.247,2.451,4.494,4.775,7.216,5.163l2.573,0.367
		c2.722,0.388,3.358,2.296,1.412,4.239l-1.839,1.836c-1.946,1.943-3.152,5.749-2.68,8.459L46.518,31.19z"/>
	<path fill="none" stroke="#1E1E1E" stroke-width="5" stroke-linecap="round" stroke-linejoin="round" stroke-miterlimit="10" d="
		M46.518,31.19c0.472,2.709-1.146,3.903-3.595,2.652l-2.315-1.182c-2.449-1.25-6.442-1.221-8.873,0.065l-2.297,1.215
		c-2.431,1.286-4.066,0.116-3.634-2.6l0.409-2.567c0.432-2.716-0.829-6.504-2.803-8.419l-1.866-1.809
		c-1.974-1.914-1.367-3.831,1.35-4.259l2.567-0.405c2.716-0.428,5.93-2.799,7.14-5.268l1.144-2.334
		c1.211-2.469,3.221-2.484,4.468-0.033l1.178,2.317c1.247,2.451,4.494,4.775,7.216,5.163l2.573,0.367
		c2.722,0.388,3.358,2.296,1.412,4.239l-1.839,1.836c-1.946,1.943-3.152,5.749-2.68,8.459L46.518,31.19z"/>
</g>
<path fill="none" stroke="#1B1B1C" stroke-width="5" stroke-linecap="round" stroke-linejoin="round" stroke-miterlimit="10" d="
	M15.437,22.279"/>
<path fill="none" stroke="#1B1B1C" stroke-width="5" stroke-linecap="round" stroke-linejoin="round" stroke-miterlimit="10" d="
	M57.768,23.282c4.953,4.676,7.984,10.952,7.984,17.852c0,14.455-13.302,26.173-29.71,26.173S6.332,55.59,6.332,41.134
	c0-6.481,2.674-12.411,7.102-16.982"/>
</svg>
