<?xml version="1.0" encoding="utf-8"?>
<!-- Generator: Adobe Illustrator 17.0.0, SVG Export Plug-In . SVG Version: 6.00 Build 0)  -->
<!DOCTYPE svg PUBLIC "-//W3C//DTD SVG 1.1//EN" "http://www.w3.org/Graphics/SVG/1.1/DTD/svg11.dtd">
<svg version="1.1" id="Layer_1" xmlns="http://www.w3.org/2000/svg" xmlns:xlink="http://www.w3.org/1999/xlink" x="0px" y="0px"
	 width="10.667px" height="10.667px" viewBox="0 0 10.667 10.667" enable-background="new 0 0 10.667 10.667" xml:space="preserve">
<g>
	<path fill="none" stroke="currentColor" stroke-linecap="round" stroke-linejoin="round" stroke-miterlimit="10" d="M2.501,10.086V1.581
		c0-0.55,0.427-0.859,0.95-0.687l0.038,0.013C4.012,1.078,4.874,1.102,5.405,0.96L5.848,0.84c0.531-0.143,1.388-0.104,1.904,0.086
		L8.23,1.103c0.516,0.19,0.953,0.796,0.97,1.345l0.061,1.886C9.279,4.884,8.882,5.15,8.38,4.926L7.894,4.71
		C7.392,4.486,6.552,4.44,6.029,4.609L5.516,4.774C4.992,4.942,4.161,4.88,3.668,4.636L2.501,4.058"/>
</g>
</svg>
