<?xml version="1.0" encoding="utf-8"?>
<!-- Generator: Adobe Illustrator 17.0.0, SVG Export Plug-In . SVG Version: 6.00 Build 0)  -->
<!DOCTYPE svg PUBLIC "-//W3C//DTD SVG 1.1//EN" "http://www.w3.org/Graphics/SVG/1.1/DTD/svg11.dtd">
<svg version="1.1" id="Layer_1" xmlns="http://www.w3.org/2000/svg" xmlns:xlink="http://www.w3.org/1999/xlink" x="0px" y="0px"
	 width="6.163px" height="7.614px" viewBox="0 0 6.163 7.614" enable-background="new 0 0 6.163 7.614" xml:space="preserve">
<path fill="#010101" d="M5.949,0.168C5.814,0.073,5.642,0.05,5.489,0.109C5.082,0.26,3.901,0.646,3.293,0.646
	c-0.005,0-0.011,0-0.017,0C3.015,0.644,2.871,0.551,2.652,0.41C2.368,0.228,2.015,0,1.413,0C0.299,0,0.031,0.384,0.002,0.705
	c-0.003,0.031,0.007,0.059,0.01,0.088C0.009,0.813,0,0.83,0,0.85v6.264c0,0.276,0.224,0.5,0.5,0.5c0.276,0,0.5-0.224,0.5-0.5V4.671
	C1.292,4.51,1.602,4.407,1.72,4.45c0.142,0.054,0.277,0.137,0.423,0.223C2.547,4.91,3.048,5.206,3.81,5.219c0.021,0,0.043,0,0.064,0
	c0.989,0,1.936-0.38,1.977-0.396c0.188-0.076,0.312-0.26,0.312-0.463V0.578C6.163,0.415,6.083,0.262,5.949,0.168z M5.163,4.003
	C4.845,4.1,4.327,4.222,3.828,4.219C3.328,4.21,3,4.017,2.651,3.812C2.454,3.695,2.267,3.588,2.074,3.515
	C1.727,3.382,1.337,3.451,1,3.573V1.031C1.086,1.015,1.204,1,1.413,1c0.309,0,0.463,0.1,0.698,0.251
	c0.27,0.174,0.605,0.39,1.154,0.396c0.549-0.018,1.337-0.2,1.897-0.373V4.003z"/>
</svg>
