<?xml version="1.0" encoding="utf-8"?>
<!-- Generator: Adobe Illustrator 17.0.0, SVG Export Plug-In . SVG Version: 6.00 Build 0)  -->
<!DOCTYPE svg PUBLIC "-//W3C//DTD SVG 1.1//EN" "http://www.w3.org/Graphics/SVG/1.1/DTD/svg11.dtd">
<svg version="1.1" id="Layer_1" xmlns="http://www.w3.org/2000/svg" xmlns:xlink="http://www.w3.org/1999/xlink" x="0px" y="0px"
	 width="72.083px" height="72.083px" viewBox="0 0 72.083 72.083" enable-background="new 0 0 72.083 72.083" xml:space="preserve">
<g>
	
		<line fill="none" stroke="currentColor" stroke-width="8" stroke-linecap="round" stroke-linejoin="round" stroke-miterlimit="10" x1="10.003" y1="4.567" x2="10.003" y2="67.517"/>
</g>
<g>
	<path fill="currentColor" fill-opacity='1' d="M23.345,4.567c-2.2,0-4,1.8-4,4v19.347c0,2.2,1.8,4,4,4H58.08c2.2,0,2.919-1.439,1.598-3.198l-5.465-7.277
		c-1.321-1.759-1.321-4.638,0-6.397l5.465-7.277c1.321-1.759,0.602-3.198-1.598-3.198H23.345z"/>
	<path fill="none" stroke="currentColor" stroke-width="8" stroke-linecap="round" stroke-linejoin="round" stroke-miterlimit="10" d="
		M23.345,4.567c-2.2,0-4,1.8-4,4v19.347c0,2.2,1.8,4,4,4H58.08c2.2,0,2.919-1.439,1.598-3.198l-5.465-7.277
		c-1.321-1.759-1.321-4.638,0-6.397l5.465-7.277c1.321-1.759,0.602-3.198-1.598-3.198H23.345z"/>
</g>
</svg>
