<?xml version="1.0" encoding="utf-8"?>
<!-- Generator: Adobe Illustrator 17.0.0, SVG Export Plug-In . SVG Version: 6.00 Build 0)  -->
<!DOCTYPE svg PUBLIC "-//W3C//DTD SVG 1.1//EN" "http://www.w3.org/Graphics/SVG/1.1/DTD/svg11.dtd">
<svg version="1.1" id="Layer_1" xmlns="http://www.w3.org/2000/svg" xmlns:xlink="http://www.w3.org/1999/xlink" x="0px" y="0px"
	 width="10.133px" height="10.299px" viewBox="0 0 10.133 10.299" enable-background="new 0 0 10.133 10.299" xml:space="preserve">
<g>
	<path fill="#010101" d="M10.09,9.55L6.53,5.99c0.51-0.64,0.83-1.43,0.83-2.31C7.36,1.65,5.71,0,3.68,0C1.65,0,0,1.65,0,3.68
		c0,2.03,1.65,3.68,3.68,3.68c0.79,0,1.52-0.26,2.12-0.68l3.58,3.58c0.1,0.09,0.34,0.02,0.53-0.18C10.11,9.89,10.19,9.65,10.09,9.55
		z M3.68,6.36C2.21,6.36,1,5.16,1,3.68C1,2.2,2.21,1,3.68,1c1.48,0,2.68,1.2,2.68,2.68C6.36,5.16,5.16,6.36,3.68,6.36z"/>
</g>
</svg>
