<?xml version="1.0" encoding="utf-8"?>
<!-- Generator: Adobe Illustrator 17.0.0, SVG Export Plug-In . SVG Version: 6.00 Build 0)  -->
<!DOCTYPE svg PUBLIC "-//W3C//DTD SVG 1.1//EN" "http://www.w3.org/Graphics/SVG/1.1/DTD/svg11.dtd">
<svg version="1.1" id="Layer_1" xmlns="http://www.w3.org/2000/svg" xmlns:xlink="http://www.w3.org/1999/xlink" x="0px" y="0px"
	 width="13.493px" height="13.493px" viewBox="0 0 13.493 13.493" enable-background="new 0 0 13.493 13.493" xml:space="preserve">
<g>
	<path fill="none" d="M6.748,2.651c0.437,0,0.793-0.356,0.793-0.793c0-0.441-0.356-0.797-0.793-0.797
		c-0.441,0-0.797,0.356-0.797,0.797C5.951,2.295,6.308,2.651,6.748,2.651z"/>
	<path fill="none" d="M6.748,10.842c-0.441,0-0.797,0.356-0.797,0.797c0,0.437,0.356,0.793,0.797,0.793
		c0.437,0,0.793-0.356,0.793-0.793C7.541,11.198,7.185,10.842,6.748,10.842z"/>
	<path fill="none" d="M6.748,5.998c-0.441,0-0.797,0.356-0.797,0.797c0,0.437,0.356,0.793,0.797,0.793
		c0.437,0,0.793-0.356,0.793-0.793C7.541,6.354,7.185,5.998,6.748,5.998z"/>
	<path d="M6.751,9.781c-1.029,0-1.86,0.831-1.86,1.86c0,1.02,0.831,1.851,1.86,1.851c1.02,0,1.852-0.831,1.852-1.851
		C8.602,10.613,7.771,9.781,6.751,9.781z M6.748,12.432c-0.441,0-0.797-0.356-0.797-0.793c0-0.441,0.356-0.797,0.797-0.797
		c0.437,0,0.793,0.356,0.793,0.797C7.541,12.076,7.185,12.432,6.748,12.432z"/>
	<path d="M6.751,4.938c-1.029,0-1.86,0.831-1.86,1.86c0,1.02,0.831,1.851,1.86,1.851c1.02,0,1.852-0.831,1.852-1.851
		C8.602,5.769,7.771,4.938,6.751,4.938z M6.748,7.588c-0.441,0-0.797-0.356-0.797-0.793c0-0.441,0.356-0.797,0.797-0.797
		c0.437,0,0.793,0.356,0.793,0.797C7.541,7.232,7.185,7.588,6.748,7.588z"/>
	<path d="M6.751,3.711c1.02,0,1.852-0.831,1.852-1.851C8.602,0.831,7.771,0,6.751,0c-1.029,0-1.86,0.831-1.86,1.86
		C4.891,2.88,5.722,3.711,6.751,3.711z M6.748,1.061c0.437,0,0.793,0.356,0.793,0.797c0,0.437-0.356,0.793-0.793,0.793
		c-0.441,0-0.797-0.356-0.797-0.793C5.951,1.417,6.308,1.061,6.748,1.061z"/>
</g>
</svg>
