<?xml version="1.0" encoding="utf-8"?>
<!-- Generator: Adobe Illustrator 17.0.0, SVG Export Plug-In . SVG Version: 6.00 Build 0)  -->
<!DOCTYPE svg PUBLIC "-//W3C//DTD SVG 1.1//EN" "http://www.w3.org/Graphics/SVG/1.1/DTD/svg11.dtd">
<svg version="1.1" id="Layer_1" xmlns="http://www.w3.org/2000/svg" xmlns:xlink="http://www.w3.org/1999/xlink" x="0px" y="0px"
	 width="13.493px" height="3.712px" viewBox="0 0 13.493 3.712" enable-background="new 0 0 13.493 3.712" xml:space="preserve">
<g>
	<circle fill="none" cx="1.854" cy="1.856" r="0.795"/>
	<circle fill="none" cx="6.698" cy="1.856" r="0.795"/>
	<circle fill="none" cx="11.635" cy="1.856" r="0.795"/>
	<path d="M1.851,0C0.831,0,0,0.831,0,1.86c0,1.02,0.831,1.852,1.851,1.852c1.029,0,1.86-0.831,1.86-1.852
		C3.711,0.831,2.88,0,1.851,0z M1.854,2.651c-0.437,0-0.793-0.356-0.793-0.793c0-0.441,0.356-0.797,0.793-0.797
		c0.441,0,0.797,0.356,0.797,0.797C2.651,2.295,2.295,2.651,1.854,2.651z"/>
	<path d="M6.695,0c-1.02,0-1.851,0.831-1.851,1.86c0,1.02,0.831,1.852,1.851,1.852c1.029,0,1.86-0.831,1.86-1.852
		C8.555,0.831,7.724,0,6.695,0z M6.698,2.651c-0.437,0-0.793-0.356-0.793-0.793c0-0.441,0.356-0.797,0.793-0.797
		c0.441,0,0.797,0.356,0.797,0.797C7.495,2.295,7.138,2.651,6.698,2.651z"/>
	<path d="M11.633,0c-1.02,0-1.851,0.831-1.851,1.86c0,1.02,0.831,1.852,1.851,1.852c1.029,0,1.86-0.831,1.86-1.852
		C13.493,0.831,12.661,0,11.633,0z M11.635,2.651c-0.437,0-0.793-0.356-0.793-0.793c0-0.441,0.356-0.797,0.793-0.797
		c0.441,0,0.797,0.356,0.797,0.797C12.432,2.295,12.076,2.651,11.635,2.651z"/>
</g>
</svg>
