<?xml version="1.0" encoding="utf-8"?>
<!-- Generator: Adobe Illustrator 17.0.0, SVG Export Plug-In . SVG Version: 6.00 Build 0)  -->
<!DOCTYPE svg PUBLIC "-//W3C//DTD SVG 1.1//EN" "http://www.w3.org/Graphics/SVG/1.1/DTD/svg11.dtd">
<svg version="1.1" id="Layer_1" xmlns="http://www.w3.org/2000/svg" xmlns:xlink="http://www.w3.org/1999/xlink" x="0px" y="0px"
	 width="9.22px" height="9.021px" viewBox="0 0 9.22 9.021" enable-background="new 0 0 9.22 9.021" xml:space="preserve">
<g>
	<polygon fill="none" points="2.016,1.899 1.724,2.663 2.308,2.663 	"/>
	<path d="M0.525,4.402c0.059,0.022,0.119,0.033,0.178,0.033c0.201,0,0.391-0.123,0.467-0.322l0.172-0.449h1.347l0.172,0.449
		c0.076,0.199,0.266,0.322,0.467,0.322c0.06,0,0.12-0.01,0.178-0.033c0.258-0.099,0.387-0.388,0.289-0.646L2.483,0.319
		C2.481,0.314,2.477,0.311,2.475,0.307C2.461,0.271,2.437,0.241,2.414,0.21C2.398,0.188,2.387,0.164,2.369,0.145
		C2.347,0.123,2.318,0.109,2.292,0.091C2.264,0.072,2.238,0.051,2.207,0.038C2.202,0.036,2.199,0.031,2.194,0.03
		C2.168,0.02,2.142,0.022,2.116,0.017C2.083,0.01,2.05,0,2.016,0C1.98,0,1.948,0.01,1.914,0.017C1.889,0.022,1.863,0.02,1.838,0.03
		C1.833,0.031,1.83,0.036,1.825,0.038C1.793,0.051,1.766,0.073,1.737,0.093C1.712,0.11,1.684,0.124,1.663,0.145
		C1.644,0.164,1.632,0.189,1.616,0.212c-0.022,0.031-0.046,0.06-0.06,0.095C1.554,0.311,1.55,0.314,1.548,0.319L0.236,3.756
		C0.138,4.014,0.267,4.303,0.525,4.402z M2.016,1.899l0.292,0.764H1.724L2.016,1.899z"/>
	<path d="M3.531,8.021H1.707l2.177-2.177C4.027,5.7,4.07,5.486,3.993,5.299C3.916,5.112,3.733,4.99,3.531,4.99H0.593
		c-0.276,0-0.5,0.224-0.5,0.5s0.224,0.5,0.5,0.5h1.73L0.147,8.167C0.004,8.31-0.039,8.525,0.038,8.712
		C0.115,8.899,0.298,9.021,0.5,9.021h3.031c0.276,0,0.5-0.224,0.5-0.5S3.807,8.021,3.531,8.021z"/>
	<path fill="#010101" d="M9.074,6.238c-0.195-0.195-0.512-0.195-0.707,0L7.661,6.944V1.034c0-0.288-0.233-0.521-0.521-0.521
		c-0.288,0-0.521,0.233-0.521,0.521v5.909L5.914,6.238c-0.195-0.195-0.512-0.195-0.707,0s-0.195,0.512,0,0.707l1.549,1.549
		c0.053,0.059,0.117,0.108,0.192,0.138c0.001,0,0.001,0.001,0.002,0.001c0.122,0.051,0.26,0.051,0.382,0
		c0.001,0,0.001-0.001,0.002-0.001c0.075-0.03,0.139-0.078,0.192-0.138l1.549-1.549C9.269,6.75,9.269,6.433,9.074,6.238z"/>
</g>
</svg>
