<?xml version="1.0" encoding="utf-8"?>
<!-- Generator: Adobe Illustrator 17.0.0, SVG Export Plug-In . SVG Version: 6.00 Build 0)  -->
<!DOCTYPE svg PUBLIC "-//W3C//DTD SVG 1.1//EN" "http://www.w3.org/Graphics/SVG/1.1/DTD/svg11.dtd">
<svg version="1.1" id="Layer_1" xmlns="http://www.w3.org/2000/svg" xmlns:xlink="http://www.w3.org/1999/xlink" x="0px" y="0px"
	 width="9.921px" height="7.37px" viewBox="0 0 9.921 7.37" enable-background="new 0 0 9.921 7.37" xml:space="preserve">
<g>
	<path fill="#010101" d="M0.5,1h8.921c0.276,0,0.5-0.224,0.5-0.5c0-0.276-0.224-0.5-0.5-0.5H0.5C0.224,0,0,0.224,0,0.5
		C0,0.776,0.224,1,0.5,1z"/>
	<path fill="#010101" d="M5.083,3.185H0.5c-0.276,0-0.5,0.224-0.5,0.5c0,0.276,0.224,0.5,0.5,0.5h4.583c0.276,0,0.5-0.224,0.5-0.5
		C5.583,3.409,5.359,3.185,5.083,3.185z"/>
	<path fill="#010101" d="M2.734,6.37H0.5C0.224,6.37,0,6.593,0,6.87c0,0.276,0.224,0.5,0.5,0.5h2.234c0.276,0,0.5-0.224,0.5-0.5
		C3.234,6.593,3.01,6.37,2.734,6.37z"/>
	<path fill="#010101" d="M9.005,4.809L8.278,5.536V2.16c0-0.276-0.224-0.5-0.5-0.5s-0.5,0.224-0.5,0.5v3.376L6.552,4.809
		c-0.195-0.195-0.512-0.195-0.707,0s-0.195,0.512,0,0.707l1.58,1.58c0.001,0.001,0.003,0.001,0.004,0.003
		c0.045,0.044,0.099,0.081,0.158,0.105c0.122,0.051,0.26,0.051,0.382,0C8.03,7.179,8.086,7.142,8.132,7.096l1.58-1.58
		c0.195-0.195,0.195-0.512,0-0.707S9.2,4.614,9.005,4.809z"/>
</g>
</svg>
