<?xml version="1.0" encoding="utf-8"?>
<!-- Generator: Adobe Illustrator 17.0.0, SVG Export Plug-In . SVG Version: 6.00 Build 0)  -->
<!DOCTYPE svg PUBLIC "-//W3C//DTD SVG 1.1//EN" "http://www.w3.org/Graphics/SVG/1.1/DTD/svg11.dtd">
<svg version="1.1" id="Layer_1" xmlns="http://www.w3.org/2000/svg" xmlns:xlink="http://www.w3.org/1999/xlink" x="0px" y="0px"
	 width="75.191px" height="72.084px" viewBox="0 0 75.191 72.084" enable-background="new 0 0 75.191 72.084" xml:space="preserve">
<g>
	<path fill="currentColor" fill-opacity='.2' d="M60.235,66.135c0.472,2.709-1.146,3.903-3.595,2.652l-14.367-7.334c-2.449-1.25-6.442-1.221-8.873,0.065
		l-14.258,7.543c-2.431,1.286-4.066,0.116-3.634-2.6l2.536-15.93c0.432-2.716-0.829-6.504-2.803-8.419L3.66,30.882
		c-1.974-1.914-1.367-3.831,1.35-4.259l15.934-2.511c2.716-0.428,5.93-2.799,7.14-5.268l7.102-14.483
		c1.211-2.469,3.221-2.484,4.468-0.033l7.312,14.378c1.247,2.451,4.494,4.775,7.216,5.163l15.969,2.279
		c2.722,0.388,3.358,2.296,1.412,4.239L60.148,41.785c-1.946,1.943-3.152,5.749-2.68,8.459L60.235,66.135z"/>
	<path fill="none" stroke="currentColor" stroke-width="5" stroke-linecap="round" stroke-linejoin="round" stroke-miterlimit="10" d="
		M60.235,66.135c0.472,2.709-1.146,3.903-3.595,2.652l-14.367-7.334c-2.449-1.25-6.442-1.221-8.873,0.065l-14.258,7.543
		c-2.431,1.286-4.066,0.116-3.634-2.6l2.536-15.93c0.432-2.716-0.829-6.504-2.803-8.419L3.66,30.882
		c-1.974-1.914-1.367-3.831,1.35-4.259l15.934-2.511c2.716-0.428,5.93-2.799,7.14-5.268l7.102-14.483
		c1.211-2.469,3.221-2.484,4.468-0.033l7.312,14.378c1.247,2.451,4.494,4.775,7.216,5.163l15.969,2.279
		c2.722,0.388,3.358,2.296,1.412,4.239L60.148,41.785c-1.946,1.943-3.152,5.749-2.68,8.459L60.235,66.135z"/>
</g>
</svg>
