<?xml version="1.0" encoding="utf-8"?>
<!-- Generator: Adobe Illustrator 17.0.0, SVG Export Plug-In . SVG Version: 6.00 Build 0)  -->
<!DOCTYPE svg PUBLIC "-//W3C//DTD SVG 1.1//EN" "http://www.w3.org/Graphics/SVG/1.1/DTD/svg11.dtd">
<svg version="1.1" id="Layer_1" xmlns="http://www.w3.org/2000/svg" xmlns:xlink="http://www.w3.org/1999/xlink" x="0px" y="0px"
	 width="12.361px" height="11.814px" viewBox="0 0 12.361 11.814" enable-background="new 0 0 12.361 11.814" xml:space="preserve">
<path d="M9.657,11.814c-0.1,0-0.199-0.027-0.287-0.082L6.174,9.739l-3.201,1.984c-0.187,0.116-0.426,0.107-0.605-0.022
	c-0.178-0.13-0.26-0.355-0.207-0.569l0.907-3.655L0.192,5.045C0.024,4.903-0.042,4.673,0.027,4.463
	c0.068-0.21,0.257-0.357,0.477-0.372l3.757-0.267l1.424-3.486C5.767,0.133,5.966,0,6.186,0h0.001
	c0.221,0.001,0.419,0.134,0.502,0.338l1.414,3.49l3.756,0.276c0.22,0.016,0.408,0.164,0.476,0.374s0.002,0.44-0.167,0.582
	L9.286,7.485l0.898,3.658c0.052,0.215-0.03,0.439-0.209,0.568C9.88,11.78,9.768,11.814,9.657,11.814z M6.175,8.558
	c0.1,0,0.199,0.028,0.287,0.082l2.351,1.466l-0.66-2.69C8.103,7.215,8.172,7.004,8.33,6.871l2.12-1.782L7.687,4.886
	C7.481,4.871,7.302,4.74,7.224,4.549l-1.04-2.567L5.137,4.546C5.059,4.737,4.879,4.867,4.674,4.881L1.91,5.078l2.115,1.788
	C4.184,6.999,4.252,7.21,4.202,7.411l-0.667,2.687L5.889,8.64C5.977,8.585,6.076,8.558,6.175,8.558z"/>
</svg>
