<?xml version="1.0" encoding="utf-8"?>
<!-- Generator: Adobe Illustrator 17.0.0, SVG Export Plug-In . SVG Version: 6.00 Build 0)  -->
<!DOCTYPE svg PUBLIC "-//W3C//DTD SVG 1.1//EN" "http://www.w3.org/Graphics/SVG/1.1/DTD/svg11.dtd">
<svg version="1.1" id="Layer_1" xmlns="http://www.w3.org/2000/svg" xmlns:xlink="http://www.w3.org/1999/xlink" x="0px" y="0px"
	 width="10.519px" height="10.378px" viewBox="0 0 10.519 10.378" enable-background="new 0 0 10.519 10.378" xml:space="preserve">
<g>

	<path d="M10.511,4.42c-0.033-0.192-0.175-0.347-0.363-0.397L8.369,3.546l0.486-1.776c0.051-0.188-0.011-0.388-0.16-0.514
		C8.547,1.13,8.338,1.104,8.162,1.186L6.493,1.964L5.724,0.291C5.643,0.114,5.433,0.011,5.27,0C5.075,0,4.898,0.113,4.816,0.289
		L4.039,1.958L2.374,1.17C2.198,1.086,1.99,1.113,1.84,1.239C1.69,1.364,1.627,1.564,1.677,1.752l0.477,1.779L0.373,3.998
		C0.185,4.047,0.042,4.202,0.008,4.394c-0.034,0.191,0.046,0.386,0.206,0.498l1.508,1.056L0.657,7.449
		C0.545,7.608,0.535,7.818,0.632,7.987s0.287,0.27,0.478,0.249l1.834-0.161l0.15,1.834c0.016,0.194,0.143,0.362,0.326,0.429
		c0.184,0.067,0.389,0.023,0.526-0.116l1.31-1.31l1.286,1.315c0.096,0.098,0.225,0.15,0.357,0.15c0.057,0,0.113-0.01,0.168-0.029
		c0.184-0.066,0.313-0.233,0.33-0.427l0.16-1.834l1.833,0.17C9.593,8.276,9.771,8.18,9.869,8.011
		c0.098-0.168,0.089-0.378-0.023-0.538L8.79,5.965l1.514-1.048C10.463,4.806,10.544,4.612,10.511,4.42z M7.807,5.429
		C7.697,5.504,7.623,5.621,7.599,5.752C7.576,5.883,7.605,6.018,7.682,6.127l0.726,1.035L7.148,7.045
		C7.011,7.033,6.884,7.074,6.782,7.159C6.68,7.245,6.616,7.367,6.604,7.5L6.495,8.75L5.617,7.853
		c-0.093-0.095-0.221-0.149-0.354-0.15C5.138,7.693,5,7.754,4.906,7.849L4.002,8.752L3.899,7.493
		C3.888,7.36,3.825,7.237,3.723,7.151c-0.09-0.076-0.205-0.118-0.322-0.118c-0.015,0-0.029,0-0.044,0.002l-1.259,0.11l0.731-1.031
		C2.905,6.005,2.936,5.871,2.913,5.74C2.89,5.608,2.816,5.492,2.707,5.416L1.672,4.691l1.223-0.32
		C3.023,4.336,3.133,4.253,3.2,4.138c0.066-0.115,0.085-0.252,0.05-0.38L2.923,2.537l1.143,0.541
		c0.12,0.057,0.258,0.063,0.384,0.018C4.574,3.05,4.676,2.957,4.732,2.836L5.267,1.69l0.528,1.148
		c0.055,0.121,0.157,0.214,0.282,0.26c0.125,0.045,0.263,0.04,0.384-0.016l1.146-0.535L7.271,3.768
		C7.236,3.896,7.254,4.033,7.32,4.148c0.066,0.115,0.176,0.2,0.304,0.234l1.221,0.327L7.807,5.429z"/>
	<path d="M5.259,3.051c-1.232,0-2.234,1.002-2.234,2.234S4.027,7.52,5.259,7.52s2.234-1.002,2.234-2.234S6.491,3.051,5.259,3.051z
		 M5.259,6.52c-0.681,0-1.234-0.554-1.234-1.234s0.554-1.234,1.234-1.234s1.234,0.554,1.234,1.234S5.94,6.52,5.259,6.52z"/>
</g>
</svg>
