<?xml version="1.0" encoding="utf-8"?>
<!-- Generator: Adobe Illustrator 17.0.0, SVG Export Plug-In . SVG Version: 6.00 Build 0)  -->
<!DOCTYPE svg PUBLIC "-//W3C//DTD SVG 1.1//EN" "http://www.w3.org/Graphics/SVG/1.1/DTD/svg11.dtd">
<svg version="1.1" id="Layer_1" xmlns="http://www.w3.org/2000/svg" xmlns:xlink="http://www.w3.org/1999/xlink" x="0px" y="0px"
	 width="78.526px" height="77.52px" viewBox="0 0 78.526 77.52" enable-background="new 0 0 78.526 77.52" xml:space="preserve">
<g>
	<path fill="currentColor" fill-opacity='1' d="M74.409,35.596c1.83-1.221,1.586-2.672-0.544-3.226L63.33,29.631c-2.129-0.554-3.366-2.734-2.749-4.846
		l3.055-10.449c0.617-2.112-0.503-3.066-2.49-2.122l-9.832,4.674c-1.987,0.945-4.336,0.069-5.22-1.945l-4.376-9.968
		c-0.884-2.014-2.356-2.026-3.271-0.025l-4.527,9.9c-0.915,2.001-3.277,2.84-5.249,1.866l-9.759-4.823
		c-1.972-0.975-3.107-0.037-2.522,2.084l2.896,10.494c0.585,2.121-0.685,4.282-2.822,4.803L5.886,31.854
		c-2.137,0.521-2.404,1.969-0.593,3.217l8.964,6.177c1.811,1.248,2.228,3.721,0.926,5.494l-6.444,8.774
		c-1.302,1.773-0.576,3.054,1.614,2.846l10.837-1.03c2.19-0.208,4.098,1.418,4.24,3.613l0.703,10.863
		c0.142,2.195,1.522,2.709,3.066,1.142l7.64-7.755c1.544-1.567,4.051-1.548,5.571,0.042l7.521,7.87
		c1.52,1.59,2.907,1.097,3.083-1.096l0.868-10.851c0.175-2.193,2.108-3.79,4.295-3.548l10.82,1.194
		c2.187,0.241,2.932-1.028,1.657-2.821l-6.31-8.871c-1.275-1.793-0.821-4.258,1.009-5.479L74.409,35.596z M39.868,48.055
		c-5.191,0-9.398-4.208-9.398-9.398c0-5.191,4.208-9.398,9.398-9.398s9.398,4.208,9.398,9.398
		C49.267,43.848,45.059,48.055,39.868,48.055z"/>
	<path fill="none" stroke="currentColor" stroke-width="5" stroke-linecap="round" stroke-linejoin="round" stroke-miterlimit="10" d="
		M74.409,35.596c1.83-1.221,1.586-2.672-0.544-3.226L63.33,29.631c-2.129-0.554-3.366-2.734-2.749-4.846l3.055-10.449
		c0.617-2.112-0.503-3.066-2.49-2.122l-9.832,4.674c-1.987,0.945-4.336,0.069-5.22-1.945l-4.376-9.968
		c-0.884-2.014-2.356-2.026-3.271-0.025l-4.527,9.9c-0.915,2.001-3.277,2.84-5.249,1.866l-9.759-4.823
		c-1.972-0.975-3.107-0.037-2.522,2.084l2.896,10.494c0.585,2.121-0.685,4.282-2.822,4.803L5.886,31.854
		c-2.137,0.521-2.404,1.969-0.593,3.217l8.964,6.177c1.811,1.248,2.228,3.721,0.926,5.494l-6.444,8.774
		c-1.302,1.773-0.576,3.054,1.614,2.846l10.837-1.03c2.19-0.208,4.098,1.418,4.24,3.613l0.703,10.863
		c0.142,2.195,1.522,2.709,3.066,1.142l7.64-7.755c1.544-1.567,4.051-1.548,5.571,0.042l7.521,7.87
		c1.52,1.59,2.907,1.097,3.083-1.096l0.868-10.851c0.175-2.193,2.108-3.79,4.295-3.548l10.82,1.194
		c2.187,0.241,2.932-1.028,1.657-2.821l-6.31-8.871c-1.275-1.793-0.821-4.258,1.009-5.479L74.409,35.596z M39.868,48.055
		c-5.191,0-9.398-4.208-9.398-9.398c0-5.191,4.208-9.398,9.398-9.398s9.398,4.208,9.398,9.398
		C49.267,43.848,45.059,48.055,39.868,48.055z"/>
</g>
</svg>
