<?xml version="1.0" encoding="utf-8"?>
<!-- Generator: Adobe Illustrator 17.0.0, SVG Export Plug-In . SVG Version: 6.00 Build 0)  -->
<!DOCTYPE svg PUBLIC "-//W3C//DTD SVG 1.1//EN" "http://www.w3.org/Graphics/SVG/1.1/DTD/svg11.dtd">
<svg version="1.1" id="Layer_1" xmlns="http://www.w3.org/2000/svg" xmlns:xlink="http://www.w3.org/1999/xlink" x="0px" y="0px"
	 width="9.887px" height="9.945px" viewBox="0 0 9.887 9.945" enable-background="new 0 0 9.887 9.945" xml:space="preserve">
<g>
	<path d="M9.74,5.085L4.802,0.146C4.708,0.053,4.581,0,4.448,0H0.5C0.224,0,0,0.224,0,0.5v4.066c0,0.133,0.053,0.26,0.146,0.354
		l4.88,4.879C5.124,9.896,5.252,9.945,5.38,9.945s0.256-0.049,0.354-0.146L9.74,5.792C9.936,5.597,9.936,5.28,9.74,5.085z
		 M5.38,8.738L1,4.359V1h3.241L8.68,5.438L5.38,8.738z"/>
	<circle fill="currentColor" cx="2.69" cy="2.65" r="0.624"/>
</g>
</svg>
