<?xml version="1.0" encoding="utf-8"?>
<!-- Generator: Adobe Illustrator 17.0.0, SVG Export Plug-In . SVG Version: 6.00 Build 0)  -->
<!DOCTYPE svg PUBLIC "-//W3C//DTD SVG 1.1//EN" "http://www.w3.org/Graphics/SVG/1.1/DTD/svg11.dtd">
<svg version="1.1" id="Layer_1" xmlns="http://www.w3.org/2000/svg" xmlns:xlink="http://www.w3.org/1999/xlink" x="0px" y="0px"
	 width="11.075px" height="8.869px" viewBox="0 0 11.075 8.869" enable-background="new 0 0 11.075 8.869" xml:space="preserve">
<g>
	<path fill="#010101" d="M0.94,5.536c0.091,0.102,0.221,0.162,0.358,0.166c0.004,0,0.009,0,0.014,0c0.132,0,0.26-0.053,0.354-0.146
		L3.26,3.962c0.195-0.195,0.195-0.512,0-0.707s-0.512-0.195-0.707,0l-1.22,1.22l-0.46-0.513c-0.184-0.205-0.5-0.223-0.706-0.038
		c-0.206,0.184-0.223,0.5-0.038,0.706L0.94,5.536z"/>
	<path fill="#010101" d="M2.657,6.422l-1.22,1.22l-0.46-0.513c-0.184-0.205-0.5-0.223-0.706-0.038
		c-0.206,0.184-0.223,0.5-0.038,0.706l0.813,0.906c0.091,0.102,0.221,0.162,0.358,0.166c0.004,0,0.009,0,0.014,0
		c0.132,0,0.26-0.053,0.354-0.146l1.594-1.594c0.195-0.195,0.195-0.512,0-0.707S2.852,6.226,2.657,6.422z"/>
	<path fill="#010101" d="M0.94,2.428C1.032,2.53,1.162,2.59,1.299,2.594c0.004,0,0.009,0,0.014,0c0.132,0,0.26-0.053,0.354-0.146
		L3.26,0.854c0.195-0.195,0.195-0.512,0-0.707s-0.512-0.195-0.707,0l-1.22,1.22l-0.46-0.513c-0.184-0.205-0.5-0.223-0.706-0.038
		C-0.039,1-0.057,1.315,0.128,1.521L0.94,2.428z"/>
	<path fill="#010101" d="M4.511,1.953h6.063c0.276,0,0.5-0.224,0.5-0.5c0-0.276-0.224-0.5-0.5-0.5H4.511c-0.276,0-0.5,0.224-0.5,0.5
		C4.011,1.729,4.235,1.953,4.511,1.953z"/>
	<path fill="#010101" d="M10.575,4.063H4.511c-0.276,0-0.5,0.224-0.5,0.5c0,0.276,0.224,0.5,0.5,0.5h6.063
		c0.276,0,0.5-0.224,0.5-0.5C11.075,4.286,10.851,4.063,10.575,4.063z"/>
	<path fill="#010101" d="M10.575,7.172H4.511c-0.276,0-0.5,0.224-0.5,0.5c0,0.276,0.224,0.5,0.5,0.5h6.063
		c0.276,0,0.5-0.224,0.5-0.5C11.075,7.396,10.851,7.172,10.575,7.172z"/>
</g>
</svg>
