<?xml version="1.0" encoding="utf-8"?>
<!-- Generator: Adobe Illustrator 17.0.0, SVG Export Plug-In . SVG Version: 6.00 Build 0)  -->
<!DOCTYPE svg PUBLIC "-//W3C//DTD SVG 1.1//EN" "http://www.w3.org/Graphics/SVG/1.1/DTD/svg11.dtd">
<svg version="1.1" id="Layer_1" xmlns="http://www.w3.org/2000/svg" xmlns:xlink="http://www.w3.org/1999/xlink" x="0px" y="0px"
	 width="63.826px" height="72.552px" viewBox="0 0 63.826 72.552" enable-background="new 0 0 63.826 72.552" xml:space="preserve">
<g>
	<path fill="none" stroke="currentColor" stroke-width="5" stroke-miterlimit="10" d="M49.3,63.451
		c-4.637,4.638-10.234,6.956-16.787,6.956c-6.554,0-12.15-2.319-16.787-6.956S8.77,53.219,8.77,46.663
		c0-4.483,1.252-8.733,3.756-12.753c0.185-0.278,1.151-1.677,2.898-4.196c1.747-2.52,3.308-4.854,4.684-7.003
		c1.376-2.149,2.914-4.9,4.614-8.254c1.7-3.354,2.983-6.47,3.849-9.345c0.278-0.927,0.804-1.654,1.577-2.179
		c0.773-0.525,1.561-0.788,2.365-0.788c0.804,0,1.6,0.263,2.387,0.789c0.789,0.525,1.306,1.252,1.554,2.179
		c0.865,2.875,2.149,5.99,3.849,9.345c1.701,3.354,3.238,6.106,4.614,8.254c1.376,2.149,2.937,4.483,4.684,7.003
		c1.746,2.52,2.713,3.918,2.898,4.196c2.505,3.927,3.758,8.177,3.758,12.753C56.257,53.217,53.938,58.813,49.3,63.451z"/>
</g>
<path fill="none" stroke="currentColor" stroke-width="5" stroke-linecap="round" stroke-miterlimit="10" d="M34.35,60.69
	c-4.343,0-8.051-1.537-11.124-4.61c-3.073-3.073-4.609-6.78-4.609-11.124"/>
</svg>
