<?xml version="1.0" encoding="utf-8"?>
<!-- Generator: Adobe Illustrator 17.0.0, SVG Export Plug-In . SVG Version: 6.00 Build 0)  -->
<!DOCTYPE svg PUBLIC "-//W3C//DTD SVG 1.1//EN" "http://www.w3.org/Graphics/SVG/1.1/DTD/svg11.dtd">
<svg version="1.1" id="Layer_1" xmlns="http://www.w3.org/2000/svg" xmlns:xlink="http://www.w3.org/1999/xlink" x="0px" y="0px"
	 width="71.554px" height="67.597px" viewBox="0 0 71.554 67.597" enable-background="new 0 0 71.554 67.597" xml:space="preserve">
<g>
	<path fill="none" stroke="currentColor" stroke-width="8" stroke-miterlimit="10" d="M52.245,58.772
		c-4.366,4.242-9.636,6.363-15.806,6.363c-6.171,0-11.439-2.121-15.806-6.363s-6.549-9.359-6.549-15.354
		c0-4.1,1.179-7.987,3.537-11.664c0.175-0.254,1.084-1.533,2.729-3.838c1.645-2.305,3.115-4.44,4.41-6.405
		c1.295-1.965,2.744-4.482,4.344-7.55c1.601-3.068,2.809-5.917,3.624-8.547c0.262-0.848,0.757-1.513,1.485-1.993
		c0.728-0.48,1.47-0.721,2.227-0.721s1.506,0.241,2.247,0.721c0.743,0.48,1.23,1.145,1.463,1.993
		c0.814,2.629,2.023,5.479,3.624,8.547c1.601,3.068,3.049,5.584,4.344,7.55c1.295,1.965,2.766,4.1,4.41,6.405
		c1.644,2.304,2.554,3.584,2.729,3.838c2.358,3.591,3.538,7.479,3.538,11.664C58.795,49.412,56.611,54.529,52.245,58.772z"/>
</g>
<path fill="none" stroke="currentColor" stroke-width="8" stroke-linecap="round" stroke-miterlimit="10" d="M39.723,54.292
	c-4.089,0-7.58-1.406-10.473-4.216s-4.34-6.202-4.34-10.174"/>
</svg>
