<?xml version="1.0" encoding="utf-8"?>
<!-- Generator: Adobe Illustrator 17.0.0, SVG Export Plug-In . SVG Version: 6.00 Build 0)  -->
<!DOCTYPE svg PUBLIC "-//W3C//DTD SVG 1.1//EN" "http://www.w3.org/Graphics/SVG/1.1/DTD/svg11.dtd">
<svg version="1.1" id="Layer_1" xmlns="http://www.w3.org/2000/svg" xmlns:xlink="http://www.w3.org/1999/xlink" x="0px" y="0px"
	 width="12.492px" height="12.424px" viewBox="0 0 12.492 12.424" enable-background="new 0 0 12.492 12.424" xml:space="preserve">
<g>
	<path fill="none" d="M3.749,10.868h4.92v-7.82h-4.92V10.868z M7.003,4.423c0-0.276,0.224-0.5,0.5-0.5s0.5,0.224,0.5,0.5v4.694
		c0,0.276-0.224,0.5-0.5,0.5s-0.5-0.224-0.5-0.5V4.423z M4.551,4.423c0-0.276,0.224-0.5,0.5-0.5s0.5,0.224,0.5,0.5v4.694
		c0,0.276-0.224,0.5-0.5,0.5s-0.5-0.224-0.5-0.5V4.423z"/>
	<polygon fill="none" points="7.499,1.598 4.909,1.598 4.459,2.048 7.949,2.048 	"/>
	<path d="M10.679,2.048h-1.3l-1.33-1.3c-0.09-0.1-0.22-0.15-0.35-0.15h-3c-0.13,0-0.26,0.06-0.35,0.15l-1.3,1.3h-1.21
		c-0.28,0-0.5,0.22-0.5,0.5c0,0.28,0.22,0.5,0.5,0.5h0.91v8.32c0,0.28,0.23,0.5,0.5,0.5h5.92c0.28,0,0.5-0.22,0.5-0.5v-8.32h1.01
		c0.28,0,0.5-0.22,0.5-0.5C11.179,2.268,10.959,2.048,10.679,2.048z M4.909,1.598h2.59l0.45,0.45h-3.49L4.909,1.598z M8.669,10.868
		h-4.92v-7.82h4.92V10.868z"/>
	<path d="M5.051,9.618c0.276,0,0.5-0.224,0.5-0.5V4.423c0-0.276-0.224-0.5-0.5-0.5s-0.5,0.224-0.5,0.5v4.694
		C4.551,9.394,4.775,9.618,5.051,9.618z"/>
	<path d="M7.503,9.618c0.276,0,0.5-0.224,0.5-0.5V4.423c0-0.276-0.224-0.5-0.5-0.5s-0.5,0.224-0.5,0.5v4.694
		C7.003,9.394,7.227,9.618,7.503,9.618z"/>
</g>
</svg>
