<?xml version="1.0" encoding="utf-8"?>
<!-- Generator: Adobe Illustrator 17.0.0, SVG Export Plug-In . SVG Version: 6.00 Build 0)  -->
<!DOCTYPE svg PUBLIC "-//W3C//DTD SVG 1.1//EN" "http://www.w3.org/Graphics/SVG/1.1/DTD/svg11.dtd">
<svg version="1.1" id="Layer_1" xmlns="http://www.w3.org/2000/svg" xmlns:xlink="http://www.w3.org/1999/xlink" x="0px" y="0px"
	 width="9.84px" height="11.27px" viewBox="0 0 9.84 11.27" enable-background="new 0 0 9.84 11.27" xml:space="preserve">
<g>

	<path d="M9.34,1.45h-1.3l-1.33-1.3C6.62,0.05,6.49,0,6.36,0h-3C3.23,0,3.1,0.06,3.01,0.15l-1.3,1.3H0.5C0.22,1.45,0,1.67,0,1.95
		c0,0.28,0.22,0.5,0.5,0.5h0.91v8.32c0,0.28,0.23,0.5,0.5,0.5h5.92c0.28,0,0.5-0.22,0.5-0.5V2.45h1.01c0.28,0,0.5-0.22,0.5-0.5
		C9.84,1.67,9.62,1.45,9.34,1.45z M3.57,1h2.59l0.45,0.45H3.12L3.57,1z M7.33,10.27H2.41V2.45h4.92V10.27z"/>
	<path d="M3.713,9.019c0.276,0,0.5-0.224,0.5-0.5V3.825c0-0.276-0.224-0.5-0.5-0.5s-0.5,0.224-0.5,0.5v4.694
		C3.213,8.796,3.436,9.019,3.713,9.019z"/>
	<path d="M6.164,9.019c0.276,0,0.5-0.224,0.5-0.5V3.825c0-0.276-0.224-0.5-0.5-0.5s-0.5,0.224-0.5,0.5v4.694
		C5.664,8.796,5.888,9.019,6.164,9.019z"/>
</g>
</svg>
