<?xml version="1.0" encoding="utf-8"?>
<!-- Generator: Adobe Illustrator 17.0.0, SVG Export Plug-In . SVG Version: 6.00 Build 0)  -->
<!DOCTYPE svg PUBLIC "-//W3C//DTD SVG 1.1//EN" "http://www.w3.org/Graphics/SVG/1.1/DTD/svg11.dtd">
<svg version="1.1" id="Layer_1" xmlns="http://www.w3.org/2000/svg" xmlns:xlink="http://www.w3.org/1999/xlink" x="0px" y="0px"
	 width="12.432px" height="10.374px" viewBox="0 0 12.432 10.374" enable-background="new 0 0 12.432 10.374" xml:space="preserve">
<g>
	<path fill="#010101" d="M11.807,2.391h-0.883V1.509c0-0.345-0.28-0.625-0.625-0.625c-0.345,0-0.625,0.28-0.625,0.625v0.883H8.791
		c-0.345,0-0.625,0.28-0.625,0.625c0,0.345,0.28,0.625,0.625,0.625h0.883v0.883c0,0.345,0.28,0.625,0.625,0.625
		c0.345,0,0.625-0.28,0.625-0.625V3.641h0.883c0.345,0,0.625-0.28,0.625-0.625C12.432,2.671,12.152,2.391,11.807,2.391z"/>
	<path fill="#010101" d="M8.089,5.411L7.277,5.434L7.162,5.506C6.332,6.027,5.547,6.069,5.329,6.07
		C5.108,6.069,4.324,6.027,3.494,5.506L3.378,5.434L2.551,5.411C0.978,5.411,0,6.54,0,8.36l0,0.852
		c0.083,0.804,0.769,1.163,1.436,1.163h0.001h7.805c0.643,0,1.329-0.359,1.416-1.218L10.655,8.36
		C10.655,6.54,9.677,5.411,8.089,5.411z M9.242,9.374H5.328H1.413c-0.178,0-0.396-0.046-0.416-0.212L1,8.36
		C1,7.47,1.27,6.411,2.537,6.411l0.545,0.016c0.981,0.576,1.89,0.643,2.248,0.644c0.354-0.001,1.263-0.067,2.245-0.644l0.53-0.016
		c1.282,0,1.551,1.06,1.551,1.949l0.006,0.748C9.638,9.328,9.42,9.374,9.242,9.374z"/>
	<path fill="#010101" d="M5.328,5.05c1.392,0,2.524-1.133,2.524-2.524C7.852,1.133,6.72,0,5.328,0S2.803,1.133,2.803,2.525
		C2.803,3.917,3.936,5.05,5.328,5.05z M5.328,1c0.84,0,1.524,0.685,1.524,1.525S6.168,4.05,5.328,4.05S3.803,3.366,3.803,2.525
		S4.487,1,5.328,1z"/>
</g>
</svg>
