<?xml version="1.0" encoding="utf-8"?>
<!-- Generator: Adobe Illustrator 17.0.0, SVG Export Plug-In . SVG Version: 6.00 Build 0)  -->
<!DOCTYPE svg PUBLIC "-//W3C//DTD SVG 1.1//EN" "http://www.w3.org/Graphics/SVG/1.1/DTD/svg11.dtd">
<svg version="1.1" id="Layer_1" xmlns="http://www.w3.org/2000/svg" xmlns:xlink="http://www.w3.org/1999/xlink" x="0px" y="0px"
	 width="10.667px" height="10.237px" viewBox="0 0 10.667 10.237" enable-background="new 0 0 10.667 10.237" xml:space="preserve">
<g>
	<path fill="none" stroke="currentColor" stroke-linecap="round" stroke-linejoin="round" stroke-miterlimit="10" d="M5.345,9.737h3.821
		c0.55,0,1-0.45,1-1V7.622"/>
</g>
<path fill="none" stroke="currentColor" stroke-linecap="round" stroke-linejoin="round" stroke-miterlimit="10" d="M5.333,6.44
	C6.505,6.378,7.38,5.799,7.38,5.799c1.034-0.176,1.909,0.207,2.472,1.077c0.148,0.228,0.25,0.483,0.314,0.746"/>
<g>
	<path fill="none" stroke="currentColor" stroke-linecap="round" stroke-linejoin="round" stroke-miterlimit="10" d="M5.321,9.737H1.5
		c-0.55,0-1-0.45-1-1V7.622"/>
</g>
<path fill="none" stroke="currentColor" stroke-linecap="round" stroke-linejoin="round" stroke-miterlimit="10" d="M5.333,6.44
	C4.161,6.378,3.286,5.799,3.286,5.799C0.989,5.409,0.5,7.51,0.5,7.51"/>
<circle fill="none" stroke="currentColor" stroke-miterlimit="10" cx="5.321" cy="2.456" r="1.956"/>
</svg>
