<?xml version="1.0" encoding="utf-8"?>
<!-- Generator: Adobe Illustrator 17.0.0, SVG Export Plug-In . SVG Version: 6.00 Build 0)  -->
<!DOCTYPE svg PUBLIC "-//W3C//DTD SVG 1.1//EN" "http://www.w3.org/Graphics/SVG/1.1/DTD/svg11.dtd">
<svg version="1.1" id="Layer_1" xmlns="http://www.w3.org/2000/svg" xmlns:xlink="http://www.w3.org/1999/xlink" x="0px" y="0px"
	 width="12.745px" height="8.066px" viewBox="0 0 12.745 8.066" enable-background="new 0 0 12.745 8.066" xml:space="preserve">
<g>
	<g>
		<path fill="none" stroke="currentColor" stroke-linecap="round" stroke-linejoin="round" stroke-miterlimit="10" d="M4.003,7.566h2.486
			c0.55,0,1-0.344,1-0.764s0-0.764,0-0.764"/>
	</g>
	<path fill="none" stroke="currentColor" stroke-linecap="round" stroke-linejoin="round" stroke-miterlimit="10" d="M3.994,5.183
		c0.847-0.045,1.48-0.463,1.48-0.463c0.747-0.127,1.38,0.149,1.787,0.778c0.107,0.165,0.181,0.349,0.227,0.539"/>
	<g>
		<path fill="none" stroke="currentColor" stroke-linecap="round" stroke-linejoin="round" stroke-miterlimit="10" d="M3.986,7.566H1.5
			c-0.55,0-1-0.344-1-0.764c0-0.42,0-0.764,0-0.764"/>
	</g>
	<path fill="none" stroke="currentColor" stroke-linecap="round" stroke-linejoin="round" stroke-miterlimit="10" d="M3.994,5.183
		C3.147,5.138,2.514,4.72,2.514,4.72C0.854,4.437,0.5,5.957,0.5,5.957"/>
	<circle fill="none" stroke="currentColor" stroke-miterlimit="10" cx="3.986" cy="2.303" r="1.414"/>
</g>
<g>
	<g>
		<path fill="none" stroke="currentColor" stroke-linecap="round" stroke-linejoin="round" stroke-miterlimit="10" d="M8.886,6.934h2.358
			c0.55,0,1-0.331,1-0.736s0-0.736,0-0.736"/>
	</g>
	<path fill="none" stroke="currentColor" stroke-linecap="round" stroke-linejoin="round" stroke-miterlimit="10" d="M8.878,4.638
		c0.816-0.044,1.426-0.446,1.426-0.446c0.72-0.122,1.329,0.144,1.722,0.75c0.103,0.159,0.174,0.336,0.219,0.52"/>
	<g>
		<path fill="none" stroke="currentColor" stroke-linecap="round" stroke-linejoin="round" stroke-miterlimit="10" d="M8.87,6.934"/>
	</g>
	<path fill="none" stroke="currentColor" stroke-linecap="round" stroke-linejoin="round" stroke-miterlimit="10" d="M8.878,4.638"/>
	<circle fill="none" stroke="currentColor" stroke-miterlimit="10" cx="8.87" cy="1.863" r="1.363"/>
</g>
</svg>
