<?xml version="1.0" encoding="utf-8"?>
<!-- Generator: Adobe Illustrator 17.0.0, SVG Export Plug-In . SVG Version: 6.00 Build 0)  -->
<!DOCTYPE svg PUBLIC "-//W3C//DTD SVG 1.1//EN" "http://www.w3.org/Graphics/SVG/1.1/DTD/svg11.dtd">
<svg version="1.1" id="Layer_1" xmlns="http://www.w3.org/2000/svg" xmlns:xlink="http://www.w3.org/1999/xlink" x="0px" y="0px"
	 width="52.596px" height="54.034px" viewBox="0 0 52.596 54.034" enable-background="new 0 0 52.596 54.034" xml:space="preserve">
<path d="M20.51,18.753l-10.471-0.833L23.535,6.414c0.887-0.756,1.232-1.97,0.871-3.079c-0.357-1.109-1.35-1.891-2.511-1.983
	L5.03,0.009C3.443-0.117,2.057,1.065,1.93,2.652s1.055,2.973,2.642,3.099l9.936,0.791L1.012,18.047
	c-0.887,0.756-1.232,1.97-0.871,3.079c0.357,1.109,1.35,1.891,2.511,1.983l17.401,1.385c1.587,0.126,2.973-1.055,3.099-2.642
	C23.279,20.265,22.097,18.879,20.51,18.753z"/>
<path d="M40.04,34.585l-7.316,2.561l5.677-11.791c0.373-0.775,0.244-1.697-0.33-2.338c-0.572-0.642-1.475-0.873-2.286-0.589
	L24,26.552c-1.109,0.388-1.692,1.599-1.304,2.708c0.388,1.109,1.599,1.692,2.708,1.304l6.942-2.43l-5.677,11.791
	c-0.373,0.775-0.244,1.697,0.33,2.338c0.572,0.642,1.475,0.873,2.286,0.589l12.158-4.256c1.109-0.388,1.692-1.599,1.304-2.708
	S41.149,34.197,40.04,34.585z"/>
<path d="M51.335,51.374l-4.474,0.124l5.194-5.49c0.341-0.361,0.432-0.891,0.229-1.344c-0.202-0.454-0.658-0.739-1.154-0.726
	l-7.207,0.2c-0.678,0.019-1.212,0.583-1.193,1.261s0.583,1.212,1.261,1.193l4.246-0.118l-5.194,5.49
	c-0.341,0.361-0.432,0.891-0.229,1.344c0.202,0.454,0.658,0.739,1.154,0.726l7.436-0.206c0.678-0.019,1.212-0.583,1.193-1.261
	S52.013,51.355,51.335,51.374z"/>
</svg>
